<svg width="68" height="108" viewBox="0 0 68 108" xmlns="http://www.w3.org/2000/svg">
<path d="M41.65 94.5H26.35C24.9475 94.5 23.8 93.3609 23.8 91.9688V90.2812C23.8 88.8891 24.9475 87.75 26.35 87.75H41.65C43.0525 87.75 44.2 88.8891 44.2 90.2812V91.9688C44.2 93.3609 43.0525 94.5 41.65 94.5ZM68 10.125V97.875C68 103.465 63.4313 108 57.8 108H10.2C4.56875 108 0 103.465 0 97.875V10.125C0 4.53516 4.56875 0 10.2 0H57.8C63.4313 0 68 4.53516 68 10.125ZM61.2 10.125C61.2 8.26875 59.67 6.75 57.8 6.75H10.2C8.33 6.75 6.8 8.26875 6.8 10.125V97.875C6.8 99.7313 8.33 101.25 10.2 101.25H57.8C59.67 101.25 61.2 99.7313 61.2 97.875V10.125Z" fill="#e8e8e8"/>
<path d="M54.0955 37.458H48.7008C42.3792 37.458 36.8777 41.0218 34.1094 46.2391C31.3409 41.0216 25.8395 37.458 19.5179 37.458H14.1232C13.0716 37.458 12.2189 38.3081 12.2189 39.3564V44.7344C12.2189 53.8018 19.6188 61.1788 28.7148 61.1788H32.2052V68.9974C32.2052 70.0457 33.0579 70.8958 34.1095 70.8958C35.1612 70.8958 36.0139 70.0457 36.0139 68.9974V61.1788H39.5043C48.6001 61.1788 56 53.802 56 44.7344V39.3564C55.9999 38.3081 55.1473 37.458 54.0955 37.458ZM32.2048 54.697L21.7694 44.2944C21.0255 43.5532 19.8201 43.5532 19.076 44.2944C18.3323 45.0358 18.3323 46.2378 19.076 46.9794L29.5116 57.3822H28.7145C21.7188 57.3822 16.0274 51.7086 16.0274 44.7346V41.255H19.5178C26.5134 41.255 32.2048 46.9286 32.2048 53.9024V54.697ZM52.1909 44.7344C52.1909 51.7082 46.4995 57.3818 39.5039 57.3818H38.7234L48.7381 47.4689C49.4844 46.7302 49.4887 45.5281 48.7476 44.7841C48.0067 44.0401 46.8007 44.036 46.0544 44.7746L36.0135 54.7137V53.9022C36.0135 46.9284 41.7049 41.2548 48.7006 41.2548H52.1909V44.7344Z" fill="#e8e8e8"/>
<path d="M45.536 11.8087C45.536 10.2577 44.2783 9 42.7273 9L24.8087 9C23.2577 9 22 10.2577 22 11.8087C22 13.3597 23.2577 14.6174 24.8087 14.6174L42.7273 14.6174C44.2783 14.6174 45.536 13.3594 45.536 11.8087Z" fill="#e8e8e8"/>
<path d="M56.5708 11.8087C56.5708 10.2577 55.3131 9 53.7621 9L52.8087 9C51.2577 9 50 10.2577 50 11.8087C50 13.3597 51.2577 14.6174 52.8087 14.6174L53.7621 14.6174C55.3134 14.6174 56.5708 13.3594 56.5708 11.8087Z" fill="#e8e8e8"/>
</svg>
