<?xml version="1.0" encoding="iso-8859-1"?>
<!-- Generator: Adobe Illustrator 19.0.0, SVG Export Plug-In . SVG Version: 6.00 Build 0)  -->
<svg version="1.1" id="Layer_1" xmlns="http://www.w3.org/2000/svg" xmlns:xlink="http://www.w3.org/1999/xlink" x="0px" y="0px"
	 viewBox="0 0 512 512" style="enable-background:new 0 0 512 512;" xml:space="preserve">
<g>
	<g>
		<path fill="#e8e8e8" d="M474.688,42.545H37.312C16.738,42.545,0,59.283,0,79.857V359.29c0,20.574,16.738,37.312,37.312,37.312h208.489v17.778
			h-19.927c-24.744,0-44.875,20.131-44.875,44.875c0,5.632,4.567,10.199,10.199,10.199h129.603c5.632,0,10.199-4.567,10.199-10.199
			c0-24.744-20.131-44.875-44.875-44.875h-19.925v-17.778h208.489c20.574,0,37.312-16.738,37.312-37.312V79.857
			C512,59.283,495.262,42.545,474.688,42.545z M286.123,434.777c9.86,0,18.377,5.858,22.252,14.278H203.623
			c3.875-8.419,12.391-14.278,22.25-14.278H286.123z M491.602,359.289c0,9.326-7.587,16.913-16.913,16.913H37.312
			c-9.326,0-16.913-7.587-16.913-16.913v-20.385h471.203V359.289z M491.602,318.505H20.398V79.857
			c0-9.326,7.587-16.913,16.913-16.913h437.377c9.326,0,16.913,7.587,16.913,16.913V318.505z"/>
	</g>
</g>
<g>
	<g>
		<path fill="#e8e8e8" d="M363.039,111.325h-28.892c-33.856,0-63.32,19.146-78.146,47.176c-14.827-28.031-44.29-47.176-78.146-47.176h-28.892
			c-5.632,0-10.199,4.567-10.199,10.199v28.893c0,48.714,39.631,88.346,88.346,88.346h18.693v42.005
			c0,5.632,4.567,10.199,10.199,10.199s10.199-4.567,10.199-10.199v-42.005h18.693c48.714,0,88.345-39.631,88.345-88.346v-28.893
			C373.238,115.892,368.672,111.325,363.039,111.325z M245.801,203.94l-55.888-55.887c-3.984-3.982-10.44-3.982-14.425,0
			c-3.983,3.983-3.983,10.441,0,14.425l55.889,55.888h-4.269c-37.466,0-67.947-30.481-67.947-67.948v-18.694h18.693
			c37.466,0,67.947,30.481,67.947,67.947V203.94z M352.839,150.417c0,37.466-30.481,67.947-67.947,67.947h-4.18l53.635-53.256
			c3.997-3.969,4.02-10.427,0.051-14.424c-3.968-3.997-10.427-4.019-14.424-0.051l-53.775,53.397v-4.36
			c0-37.466,30.481-67.947,67.947-67.947h18.693V150.417z"/>
	</g>
</g>
<g>
	<g>
		<path fill="#e8e8e8" d="M467.124,217.742c-5.632,0-10.199,4.567-10.199,10.199v65.066c0,5.632,4.567,10.199,10.199,10.199
			c5.632,0,10.199-4.567,10.199-10.199v-65.066C477.323,222.309,472.755,217.742,467.124,217.742z"/>
	</g>
</g>
<g>
	<g>
		<path fill="#e8e8e8" d="M467.124,182.799c-5.632,0-10.199,4.567-10.199,10.199v3.462c0,5.632,4.567,10.199,10.199,10.199
			c5.632,0,10.199-4.567,10.199-10.199v-3.462C477.323,187.365,472.755,182.799,467.124,182.799z"/>
	</g>
</g>
<g>
</g>
<g>
</g>
<g>
</g>
<g>
</g>
<g>
</g>
<g>
</g>
<g>
</g>
<g>
</g>
<g>
</g>
<g>
</g>
<g>
</g>
<g>
</g>
<g>
</g>
<g>
</g>
<g>
</g>
</svg>
