<?xml version="1.0" encoding="utf-8"?>
<!-- Generator: Adobe Illustrator 24.2.3, SVG Export Plug-In . SVG Version: 6.00 Build 0)  -->
<svg version="1.1" id="Layer_1" xmlns="http://www.w3.org/2000/svg" xmlns:xlink="http://www.w3.org/1999/xlink" x="0px" y="0px"
	 viewBox="0 0 1080 1080" style="enable-background:new 0 0 1080 1080;" xml:space="preserve">
<style type="text/css">
	.st0{fill:#FFFFFF;}
</style>
<g>
	<g>
		<path class="st0" d="M721.5,206.4c-5.4-35.6-24-67.7-52.3-90.5c-25.4-20.4-57.2-31.6-89.6-31.6h-41.4h-4.2h-0.4h-4.2h-41.4
			c-32.4,0-64.2,11.2-89.6,31.6c-28.3,22.8-46.9,54.9-52.3,90.5c-1.1,7.1-1.6,14.3-1.6,21.4V296v156.3V554
			c0,27.2,7.8,53.7,22.4,76.7c20.9,32.9,54.6,56.1,92.4,63.9c9.4,1.9,19.1,2.9,28.7,2.9h45.7h0.4h45.7c9.6,0,19.3-1,28.7-2.9
			c37.8-7.7,71.5-31,92.4-63.9c14.7-23,22.4-49.6,22.4-76.7V452.3V296v-68.1C723.1,220.7,722.6,213.5,721.5,206.4z M521.2,376.8
			c-0.4-0.6-0.7-1.3-1.1-1.9c-1.3-2.3-2.7-4.6-4.1-6.9c-1.2-1.9-2.5-3.9-3.8-5.7c-0.4-0.6-0.9-1.2-1.3-1.8c-0.9-1.3-1.8-2.5-2.7-3.8
			c-0.5-0.7-1.1-1.4-1.6-2.1c-0.9-1.1-1.7-2.2-2.6-3.3c-0.6-0.7-1.2-1.5-1.8-2.2c-0.9-1-1.7-2.1-2.6-3.1c-0.7-0.7-1.3-1.5-2-2.2
			c-0.9-1-1.7-1.9-2.6-2.9c-0.7-0.7-1.4-1.4-2.1-2.2c-0.9-0.9-1.8-1.8-2.7-2.7c-0.7-0.7-1.5-1.4-2.2-2.1c-0.9-0.9-1.8-1.7-2.8-2.6
			c-0.8-0.7-1.6-1.4-2.3-2c-0.9-0.8-1.9-1.6-2.9-2.4c-0.8-0.7-1.6-1.3-2.4-2c-1-0.8-1.9-1.5-2.9-2.3c-0.8-0.6-1.7-1.3-2.5-1.9
			c-1-0.7-2-1.5-3-2.2c-0.9-0.6-1.7-1.2-2.6-1.8c-1-0.7-2-1.4-3.1-2c-0.9-0.6-1.8-1.1-2.7-1.7c-1-0.7-2.1-1.3-3.1-1.9
			c-0.9-0.5-1.8-1.1-2.7-1.6c-1.1-0.6-2.1-1.2-3.2-1.8c-0.9-0.5-1.9-1-2.8-1.5c-1.1-0.6-2.2-1.1-3.3-1.7c-0.9-0.5-1.9-0.9-2.9-1.4
			c-1.1-0.5-2.2-1-3.4-1.5c-1-0.4-1.9-0.9-2.9-1.3c-0.3-0.1-0.6-0.3-0.8-0.4c-0.1-0.6-0.2-1.3-0.3-1.9c-0.1-1-0.3-2-0.4-3.1
			c-0.2-1.6-0.4-3.2-0.5-4.7c-0.1-1-0.2-2-0.3-3c-0.1-1.7-0.2-3.5-0.3-5.2c0-0.9-0.1-1.7-0.1-2.6c-0.1-2.6-0.2-5.2-0.2-7.8
			c0-3,0.1-6,0.2-8.9c0-0.6,0.1-1.3,0.1-1.9c0.2-2.9,0.4-5.8,0.7-8.7c0-0.4,0.1-0.9,0.1-1.3c0.3-2.6,0.6-5.3,1-7.9
			c0.1-0.5,0.1-1.1,0.2-1.6c0.4-2.9,1-5.7,1.5-8.5c0-0.2,0.1-0.4,0.1-0.6c1.6,0.8,3.1,1.6,4.6,2.4c0.8,0.4,1.6,0.8,2.4,1.3
			c2.5,1.4,4.9,2.8,7.3,4.3c0,0,0.1,0,0.1,0.1c2.4,1.5,4.8,3.2,7.2,4.8c0.7,0.5,1.3,1,2,1.5c1.6,1.2,3.3,2.4,4.9,3.7
			c0.8,0.7,1.6,1.4,2.4,2c1.4,1.2,2.8,2.3,4.1,3.5c0.9,0.8,1.7,1.6,2.5,2.4c1.2,1.2,2.5,2.3,3.7,3.5c0.9,0.9,1.7,1.7,2.5,2.6
			c1.1,1.2,2.3,2.4,3.4,3.6c0.8,0.9,1.6,1.8,2.4,2.8c1.1,1.2,2.1,2.5,3.1,3.8c0.8,1,1.6,1.9,2.3,2.9c1,1.3,2,2.6,2.9,3.9
			c0.7,1,1.5,2,2.2,3.1c0.9,1.3,1.8,2.7,2.7,4.1c0.7,1,1.3,2.1,2,3.2c0.9,1.4,1.7,2.8,2.5,4.2c0.6,1.1,1.2,2.1,1.8,3.2
			c0.8,1.5,1.5,3,2.3,4.5c0.5,1.1,1.1,2.1,1.6,3.2c0.7,1.6,1.4,3.2,2.1,4.8c0.4,1,0.9,2.1,1.3,3.1c0.7,1.8,1.4,3.6,2,5.4
			c0.3,0.9,0.7,1.8,1,2.7c0.9,2.7,1.8,5.5,2.5,8.3c0,0,0,0,0,0c3,10.7,4.7,21.8,5.3,33.1c0,0.8-0.1,1.6-0.2,2.4c0,0.2,0,0.4,0,0.6
			c0.1,1.9,0.1,3.7,0.1,5.6c0,1.9,0,3.7-0.1,5.6c0,0.2,0,0.4,0,0.6c0,0.9,0.1,1.8,0.2,2.7c0,0.7-0.1,1.4-0.1,2.1
			c-0.2-0.4-0.4-0.7-0.6-1C523.3,380.6,522.3,378.7,521.2,376.8z M523.3,435.9c-0.1-0.1-0.2-0.1-0.3-0.2
			c-14.3-9.2-27.3-20.3-38.7-32.9c-1.5-1.6-2.9-3.2-4.3-4.9c-0.4-0.5-0.9-1.1-1.3-1.6c-1-1.1-1.9-2.3-2.8-3.5
			c-0.5-0.6-1-1.3-1.5-1.9c-0.8-1.1-1.7-2.2-2.5-3.3c-0.5-0.7-1-1.3-1.4-2c-0.8-1.1-1.6-2.3-2.4-3.4c-0.4-0.6-0.9-1.3-1.3-1.9
			c-0.9-1.3-1.8-2.7-2.6-4c-0.3-0.5-0.6-0.9-0.9-1.4c-1.1-1.8-2.2-3.7-3.3-5.5c-0.2-0.4-0.5-0.9-0.7-1.3c-0.8-1.4-1.6-2.9-2.4-4.3
			c-0.4-0.7-0.7-1.4-1.1-2c-0.6-1.2-1.3-2.5-1.9-3.7c-0.4-0.7-0.7-1.5-1.1-2.2c-0.6-1.2-1.1-2.4-1.7-3.7c-0.3-0.8-0.7-1.5-1-2.3
			c-0.6-1.3-1.1-2.6-1.7-3.9c-0.3-0.7-0.6-1.4-0.8-2c-0.7-1.8-1.4-3.5-2-5.3c-0.1-0.2-0.2-0.5-0.3-0.7c-0.7-2-1.4-4-2.1-6.1
			c-0.2-0.7-0.4-1.3-0.6-2c-0.4-1.4-0.9-2.8-1.3-4.2c-0.2-0.8-0.4-1.6-0.7-2.3c-0.2-0.7-0.4-1.5-0.6-2.2c0.2,0.1,0.4,0.2,0.6,0.3
			c2.7,1.4,5.3,2.9,7.9,4.4c0.5,0.3,1,0.6,1.5,0.9c2.7,1.6,5.3,3.3,7.9,5.1c0,0,0,0,0,0c2.6,1.8,5.1,3.7,7.5,5.6
			c0.5,0.4,0.9,0.7,1.4,1.1c2.4,1.9,4.7,3.9,6.9,5.9c0.4,0.4,0.9,0.8,1.3,1.2c2.3,2.1,4.6,4.3,6.7,6.6c0,0,0,0,0,0
			c2.2,2.3,4.2,4.6,6.3,7c0.4,0.5,0.8,0.9,1.1,1.4c1.9,2.3,3.8,4.7,5.6,7.2c0.3,0.5,0.7,0.9,1,1.4c1.8,2.6,3.6,5.2,5.3,7.9
			c0,0,0,0,0,0c1,1.6,2,3.3,3,4.9c6.7,11.6,11.9,23.9,15.4,36.8C521.1,424.6,522.4,430.2,523.3,435.9z M524.9,293.4
			c0,0.7-0.1,1.5-0.1,2.2c-0.9-1.9-1.9-3.7-2.9-5.6c-0.1-0.2-0.3-0.5-0.4-0.8c-1.4-2.6-2.9-5.2-4.5-7.7c-0.4-0.7-0.9-1.3-1.3-2
			c-1.2-1.9-2.5-3.8-3.8-5.7c-0.5-0.7-1-1.4-1.4-2.1c-1.7-2.3-3.4-4.6-5.1-6.9c-0.1-0.1-0.1-0.2-0.2-0.3c-1.9-2.3-3.8-4.6-5.7-6.9
			c-0.5-0.6-1.1-1.2-1.6-1.8c-1.5-1.7-3.1-3.3-4.6-4.9c-0.6-0.6-1.2-1.2-1.8-1.8c-4.2-4.2-8.6-8.2-13.2-11.9c-0.7-0.5-1.3-1.1-2-1.6
			c-1.7-1.4-3.5-2.7-5.3-4c-0.7-0.5-1.4-1-2.1-1.5c-2.4-1.7-4.9-3.4-7.4-5c-0.2-0.1-0.4-0.2-0.5-0.3c-2.3-1.5-4.7-2.9-7.1-4.2
			c-0.8-0.5-1.6-0.9-2.4-1.3c-1.9-1-3.9-2-5.8-3c-0.8-0.4-1.6-0.8-2.4-1.2c-0.4-0.2-0.7-0.4-1.1-0.5c0.1-0.3,0.2-0.7,0.3-1
			c0.2-0.8,0.5-1.5,0.7-2.3c0.6-2,1.3-3.9,2-5.8c0.3-0.9,0.6-1.7,0.9-2.6c0.7-2,1.5-4,2.3-5.9c0.3-0.7,0.5-1.3,0.8-2
			c1.1-2.6,2.3-5.2,3.5-7.7c0.2-0.4,0.4-0.9,0.6-1.3c1-2.1,2.1-4.2,3.2-6.2c0.4-0.8,0.9-1.6,1.3-2.4c1-1.8,2-3.5,3-5.2
			c0.5-0.8,0.9-1.5,1.4-2.3c1.2-2,2.5-4,3.8-6c0.2-0.4,0.5-0.8,0.7-1.1c0-0.1,0.1-0.1,0.1-0.2c0,0,0.1,0.1,0.1,0.1
			c0.5,0.4,1,0.9,1.5,1.3c1.8,1.4,3.5,2.9,5.2,4.4c0.8,0.7,1.6,1.5,2.4,2.2c1.3,1.3,2.7,2.5,4,3.8c0.9,0.9,1.7,1.8,2.5,2.6
			c1.2,1.2,2.3,2.4,3.4,3.7c0.8,1,1.7,1.9,2.5,2.9c1,1.2,2.1,2.5,3.1,3.7c0.8,1,1.6,2.1,2.4,3.1c0.9,1.3,1.9,2.5,2.8,3.8
			c0.8,1.1,1.5,2.2,2.2,3.3c0.9,1.3,1.7,2.6,2.5,3.9c0.7,1.1,1.4,2.3,2.1,3.4c0.8,1.3,1.6,2.7,2.3,4c0.6,1.2,1.3,2.3,1.9,3.5
			c0.7,1.4,1.4,2.7,2.1,4.1c0.6,1.2,1.1,2.4,1.7,3.6c0.6,1.4,1.2,2.8,1.8,4.3c0.5,1.2,1,2.4,1.5,3.7c0.6,1.5,1.1,2.9,1.6,4.4
			c0.4,1.2,0.9,2.5,1.3,3.7c0.5,1.5,0.9,3.1,1.4,4.6c0.4,1.2,0.7,2.5,1.1,3.7c0.4,1.6,0.8,3.2,1.2,4.8c0.3,1.2,0.6,2.4,0.8,3.6
			c0.4,1.7,0.6,3.5,0.9,5.2c0.2,1.1,0.4,2.2,0.6,3.4c0.3,2.1,0.5,4.2,0.8,6.3c0.1,0.8,0.2,1.6,0.3,2.4c0.1,1,0.1,2.1,0.2,3.1v5.1
			c0,0.2,0,0.4,0,0.7c0,0,0,0,0,0c0,0,0,0,0,0c0.1,1.9,0.1,3.7,0.1,5.6c0,1.9,0,3.7-0.1,5.6c0,0.2,0,0.4,0,0.6
			C524.8,291.6,524.9,292.5,524.9,293.4z M524.8,278.6L524.8,278.6C524.8,278.6,524.8,278.6,524.8,278.6L524.8,278.6
			C524.8,278.6,524.8,278.6,524.8,278.6z M506.9,118.8c0.8-0.6,1.6-1.3,2.4-1.9c1.7-1.3,3.5-2.7,5.3-3.9c0.8-0.6,1.7-1.2,2.5-1.8
			c2.2-1.5,4.3-3,6.5-4.4c0.4-0.2,0.7-0.5,1.1-0.7V207c-0.4-0.7-0.8-1.5-1.2-2.2c-0.7-1.4-1.4-2.7-2.1-4.1c-0.8-1.5-1.7-3-2.5-4.4
			c-0.8-1.3-1.5-2.6-2.4-3.9c-0.9-1.5-1.9-2.9-2.8-4.3c-0.8-1.3-1.7-2.5-2.6-3.8c-1-1.4-2-2.8-3.1-4.2c-0.9-1.2-1.8-2.4-2.8-3.6
			c-1.1-1.4-2.2-2.7-3.3-4c-1-1.2-1.9-2.3-2.9-3.4c-1.2-1.3-2.4-2.6-3.6-3.9c-1-1.1-2-2.2-3.1-3.3c-1.3-1.3-2.6-2.5-3.9-3.8
			c-1.1-1-2.1-2.1-3.2-3c-1.4-1.2-2.8-2.4-4.2-3.6c-1.1-0.9-2.2-1.9-3.3-2.8c-0.1-0.1-0.2-0.2-0.4-0.3c0.2-0.2,0.4-0.5,0.6-0.7
			c0.6-0.7,1.1-1.3,1.7-2c1.5-1.8,3-3.5,4.5-5.2c0.7-0.8,1.4-1.6,2.1-2.3c1.6-1.7,3.1-3.3,4.7-4.9c0.6-0.6,1.3-1.3,1.9-1.9
			c2.2-2.2,4.5-4.3,6.8-6.4c0.4-0.4,0.8-0.7,1.2-1.1C502.9,122.1,504.9,120.5,506.9,118.8z M487.9,101.9H500
			c-0.5,0.4-0.9,0.8-1.4,1.1c-2.1,1.6-4.1,3.3-6.1,4.9c-1.1,0.9-2.3,1.9-3.4,2.8c-2.4,2.1-4.8,4.3-7.1,6.5c-0.6,0.6-1.2,1.1-1.9,1.7
			c-2.9,2.8-5.7,5.7-8.4,8.7c-0.8,0.9-1.6,1.8-2.4,2.7c-1.9,2.1-3.8,4.3-5.6,6.5c-0.3,0.3-0.6,0.7-0.9,1c-0.1,0-0.1-0.1-0.2-0.1
			c-2.8-1.8-5.6-3.5-8.5-5.1c-0.8-0.5-1.7-0.9-2.6-1.4c-2.1-1.1-4.2-2.2-6.3-3.3c-1.1-0.5-2.1-1-3.2-1.5c-2-0.9-4-1.8-6-2.7
			c-1.1-0.5-2.1-0.9-3.2-1.3c-2.2-0.9-4.5-1.7-6.8-2.5c-0.7-0.2-1.3-0.5-2-0.7C443.4,107.9,465.1,101.9,487.9,101.9z M406,132.4
			c0.8,0.2,1.5,0.4,2.3,0.6c0.8,0.2,1.6,0.4,2.5,0.7c1.7,0.5,3.5,1,5.2,1.5c0.6,0.2,1.2,0.4,1.8,0.6c2.3,0.8,4.6,1.6,6.8,2.4
			c0.5,0.2,0.9,0.4,1.4,0.5c1.8,0.7,3.6,1.4,5.4,2.2c0.7,0.3,1.4,0.7,2.2,1c1.5,0.7,3,1.4,4.6,2.2c0.7,0.4,1.4,0.7,2.1,1.1
			c1.7,0.9,3.3,1.7,4.9,2.7c0.5,0.3,1,0.5,1.5,0.8c2,1.1,3.9,2.3,5.9,3.6c-0.1,0.2-0.2,0.3-0.3,0.5c-0.4,0.5-0.7,1.1-1,1.6
			c-1.4,2-2.7,4.1-3.9,6.2c-0.5,0.8-1,1.7-1.5,2.5c-1.1,1.9-2.3,3.9-3.4,5.9c-0.4,0.8-0.8,1.5-1.3,2.3c-1.4,2.7-2.8,5.4-4.2,8.1
			c-0.1,0.3-0.2,0.5-0.4,0.8c-1.2,2.5-2.3,5-3.4,7.6c-0.4,0.9-0.7,1.7-1.1,2.6c-0.8,2-1.6,4.1-2.4,6.2c-0.3,0.9-0.7,1.8-1,2.6
			c-0.9,2.6-1.8,5.1-2.6,7.7c-0.1,0.3-0.2,0.6-0.3,1c0,0.1-0.1,0.2-0.1,0.2c-2.2-0.8-4.4-1.5-6.6-2.1c-0.1,0-0.2-0.1-0.3-0.1
			c-2.5-0.8-5.1-1.4-7.6-2.1c-0.8-0.2-1.7-0.4-2.5-0.6c-1.7-0.4-3.5-0.8-5.2-1.2c-1-0.2-2-0.4-3-0.6c-1.6-0.3-3.2-0.6-4.9-0.8
			c-1-0.2-2.1-0.3-3.1-0.5c-1.6-0.2-3.3-0.4-4.9-0.6c-1-0.1-2-0.2-3-0.3c-1.8-0.2-3.6-0.3-5.4-0.4c-0.9-0.1-1.7-0.1-2.6-0.2
			c-2.7-0.1-5.3-0.2-8-0.2c-1,0-2.1,0-3.1,0C371.6,172.8,385.7,149.8,406,132.4z M361.9,227.9c0-3.9,0.2-7.9,0.6-11.8
			c2.1-0.1,4.1-0.1,6.1-0.1c2.4,0,4.9,0.1,7.3,0.2c0.8,0,1.6,0.1,2.3,0.1c1.6,0.1,3.2,0.2,4.9,0.4c0.9,0.1,1.9,0.2,2.8,0.3
			c1.5,0.2,2.9,0.3,4.4,0.5c1,0.1,1.9,0.3,2.9,0.4c1.4,0.2,2.8,0.5,4.3,0.7c1,0.2,1.9,0.4,2.9,0.6c1.4,0.3,2.8,0.6,4.3,0.9
			c0.9,0.2,1.8,0.4,2.8,0.7c1.5,0.4,3,0.8,4.5,1.2c0.8,0.2,1.6,0.5,2.5,0.7c1.9,0.6,3.8,1.2,5.6,1.9c0.4,0.1,0.8,0.3,1.2,0.4
			c0,0,0,0,0,0c-0.1,0.3-0.1,0.6-0.2,0.9c-0.7,3.3-1.4,6.6-1.9,9.9c-0.1,0.3-0.1,0.7-0.2,1c-0.6,3.4-1,6.8-1.4,10.3
			c-0.1,0.6-0.1,1.3-0.2,1.9c-0.4,3.4-0.6,6.8-0.8,10.2c0,0.6-0.1,1.2-0.1,1.8c-0.2,3.6-0.3,7.1-0.3,10.7c0,3.4,0.1,6.8,0.3,10.1
			c0.1,1.1,0.1,2.2,0.2,3.3c0.1,2.3,0.3,4.6,0.5,6.9c0,0.5,0.1,1,0.1,1.6c-0.3-0.1-0.5-0.1-0.8-0.2c-0.7-0.2-1.3-0.4-2-0.5
			c-1.7-0.5-3.4-0.9-5.1-1.3c-0.8-0.2-1.6-0.4-2.3-0.5c-1.7-0.4-3.5-0.8-5.2-1.1c-0.6-0.1-1.2-0.3-1.9-0.4c-2.3-0.4-4.7-0.8-7.1-1.1
			c-0.5-0.1-1-0.1-1.5-0.2c-1.9-0.2-3.8-0.5-5.7-0.6c-0.8-0.1-1.6-0.1-2.4-0.2c-1.7-0.1-3.4-0.3-5.2-0.4c-0.7,0-1.5-0.1-2.2-0.1
			c-2.4-0.1-4.8-0.2-7.3-0.2c-2.2,0-4.4,0-6.6,0.1V227.9z M361.9,304.2c2.3-0.1,4.5-0.2,6.6-0.2c2.3,0,4.6,0.1,6.9,0.2
			c0.8,0,1.5,0.1,2.3,0.1c1.5,0.1,3.1,0.2,4.6,0.3c0.9,0.1,1.8,0.2,2.7,0.3c1.4,0.1,2.7,0.3,4.1,0.5c1,0.1,1.9,0.3,2.9,0.4
			c1.3,0.2,2.6,0.4,3.9,0.6c1,0.2,2,0.4,2.9,0.6c1.3,0.2,2.5,0.5,3.8,0.8c1,0.2,2,0.4,2.9,0.7c1.3,0.3,2.5,0.6,3.8,1
			c1,0.3,1.9,0.5,2.9,0.8c1.3,0.4,2.5,0.8,3.7,1.1c0.9,0.3,1.9,0.6,2.8,0.9c0.4,0.1,0.8,0.3,1.2,0.4c0.1,0.4,0.2,0.8,0.3,1.2
			c0.2,1.1,0.5,2.2,0.7,3.3c0.3,1.3,0.6,2.6,0.9,3.9c0.3,1.1,0.5,2.2,0.8,3.3c0.3,1.3,0.7,2.6,1,3.9c0.3,1.1,0.6,2.2,0.9,3.3
			c0.4,1.3,0.8,2.5,1.2,3.8c0.3,1.1,0.7,2.2,1.1,3.2c0.4,1.3,0.8,2.5,1.3,3.8c0.4,1.1,0.8,2.1,1.2,3.2c0.5,1.2,0.9,2.5,1.4,3.7
			c0.4,1.1,0.8,2.1,1.3,3.2c0.5,1.2,1,2.5,1.6,3.7c0.4,1,0.9,2.1,1.4,3.1c0.6,1.2,1.1,2.4,1.7,3.6c0.5,1,1,2,1.5,3
			c0.6,1.2,1.2,2.4,1.8,3.6c0.5,1,1,2,1.5,2.9c0.7,1.2,1.3,2.4,2,3.6c0.5,0.9,1.1,1.9,1.6,2.8c0.7,1.2,1.4,2.4,2.2,3.6
			c0.6,0.9,1.1,1.8,1.7,2.7c0.8,1.2,1.6,2.4,2.3,3.6c0.6,0.9,1.1,1.7,1.7,2.6c0.8,1.2,1.7,2.4,2.6,3.6c0.6,0.8,1.1,1.6,1.7,2.4
			c0.9,1.3,1.9,2.5,2.8,3.7c0.6,0.7,1.1,1.5,1.7,2.2c1.1,1.4,2.2,2.7,3.3,4c0.5,0.6,0.9,1.2,1.4,1.7c1.6,1.9,3.2,3.8,4.9,5.6
			c2.2,2.4,4.4,4.7,6.7,7c0.5,0.5,1,1,1.5,1.5c2.3,2.2,4.6,4.4,6.9,6.6c0.3,0.2,0.6,0.5,0.8,0.7c2.2,1.9,4.4,3.8,6.6,5.7
			c0.5,0.4,1,0.9,1.6,1.3c2.4,2,4.9,3.9,7.5,5.8c0.2,0.1,0.3,0.2,0.5,0.3H361.9V304.2z M385.9,616.4c-1,0.1-2.1,0.2-3.1,0.3
			c-1,0.1-2.1,0.2-3.1,0.3c-0.2,0-0.4,0-0.7,0c-11.2-19.2-17-40.8-17-63v-92.9h163c0,1.7,0,3.4-0.1,5.2c0,0.2,0,0.4,0,0.6
			c0,0.8,0.1,1.6,0.2,2.4c-0.6,11.2-2.4,22.4-5.3,33.1c-0.6,2.1-1.2,4.1-1.8,6.1c-0.2,0.6-0.4,1.2-0.6,1.9c-0.5,1.4-0.9,2.8-1.4,4.1
			c-0.3,0.8-0.6,1.5-0.9,2.2c-0.5,1.2-0.9,2.4-1.4,3.6c-0.3,0.8-0.7,1.6-1,2.4c-0.5,1.1-1,2.3-1.5,3.4c-0.4,0.8-0.8,1.6-1.1,2.4
			c-0.5,1.1-1,2.1-1.5,3.2c-0.4,0.8-0.8,1.6-1.2,2.4c-0.5,1-1.1,2.1-1.6,3.1c-0.4,0.8-0.9,1.6-1.4,2.4c-0.6,1-1.1,2-1.7,2.9
			c-0.5,0.8-1,1.6-1.5,2.3c-0.6,0.9-1.2,1.9-1.8,2.8c-0.5,0.8-1,1.5-1.6,2.3c-0.6,0.9-1.3,1.8-1.9,2.7c-0.5,0.8-1.1,1.5-1.7,2.2
			c-0.7,0.9-1.3,1.8-2,2.6c-0.6,0.7-1.2,1.5-1.8,2.2c-0.7,0.8-1.4,1.7-2.1,2.5c-0.6,0.7-1.2,1.4-1.8,2.1c-0.7,0.8-1.4,1.6-2.2,2.4
			c-0.6,0.7-1.3,1.4-1.9,2.1c-0.7,0.8-1.5,1.6-2.2,2.3c-0.7,0.7-1.3,1.3-2,2c-0.8,0.7-1.5,1.5-2.3,2.2c-0.7,0.6-1.4,1.3-2.1,1.9
			c-0.8,0.7-1.6,1.4-2.4,2.1c-0.7,0.6-1.4,1.2-2.2,1.8c-0.8,0.7-1.6,1.4-2.5,2c-0.7,0.6-1.5,1.2-2.3,1.8c-0.8,0.6-1.7,1.3-2.5,1.9
			c-0.8,0.6-1.5,1.1-2.3,1.7c-0.9,0.6-1.7,1.2-2.6,1.8c-0.8,0.5-1.6,1.1-2.4,1.6c-0.9,0.6-1.8,1.1-2.6,1.7c-0.8,0.5-1.6,1-2.5,1.5
			c-0.9,0.5-1.8,1.1-2.7,1.6c-0.8,0.5-1.7,1-2.5,1.4c-0.9,0.5-1.8,1-2.8,1.5c-0.9,0.5-1.7,0.9-2.6,1.3c-0.9,0.5-1.9,0.9-2.8,1.4
			c-0.9,0.4-1.8,0.8-2.7,1.2c-1,0.4-1.9,0.8-2.9,1.3c-0.9,0.4-1.8,0.8-2.7,1.1c-1,0.4-1.9,0.8-2.9,1.1c-0.9,0.4-1.9,0.7-2.8,1
			c-1,0.4-2,0.7-2.9,1c-0.9,0.3-1.9,0.6-2.8,0.9c-1,0.3-2,0.6-3,0.9c-1,0.3-1.9,0.6-2.9,0.8c-1,0.3-2,0.5-3,0.8c-1,0.2-2,0.5-3,0.7
			c-1,0.2-2,0.5-3.1,0.7c-1,0.2-2,0.4-3,0.6c-1,0.2-2.1,0.4-3.1,0.5c-1,0.2-2,0.3-3,0.5c-1,0.2-2.1,0.3-3.1,0.4
			C387.9,616.2,386.9,616.3,385.9,616.4z M524.7,680h-36.9c-1.5,0-3.1,0-4.6-0.1c2.3-2,4.4-4,6.6-6.1c0.3-0.3,0.5-0.5,0.8-0.8
			c2-2,4-4,5.9-6.1c0.7-0.8,1.4-1.6,2.1-2.4c1.4-1.6,2.8-3.2,4.2-4.9c0.8-0.9,1.5-1.9,2.2-2.8c1.3-1.6,2.5-3.2,3.7-4.8
			c0.7-1,1.4-1.9,2.1-2.9c1.2-1.7,2.4-3.4,3.5-5.2c0.6-0.9,1.2-1.8,1.8-2.8c1.3-2.2,2.6-4.3,3.9-6.6c0.3-0.5,0.6-1.1,1-1.6
			c1.3-2.4,2.5-4.8,3.7-7.2V680z M524.8,543.5c0.1,1.8,0.1,3.5,0.1,5.3s0,3.5-0.1,5.3c0,0.1,0,0.2,0,0.3c0,0.1,0,0.2,0,0.2v5.4
			c-0.1,1.1-0.1,2.1-0.2,3.2c-0.1,0.7-0.2,1.4-0.2,2.1c-0.3,2.5-0.5,4.9-0.9,7.4c-0.2,1.2-0.4,2.3-0.6,3.5c-0.3,1.8-0.6,3.7-1,5.5
			c-0.3,1.3-0.6,2.6-0.9,3.9c-0.4,1.7-0.8,3.3-1.2,5c-0.4,1.3-0.8,2.6-1.2,4c-0.5,1.6-0.9,3.1-1.5,4.7c-0.5,1.3-1,2.7-1.5,4
			c-0.6,1.5-1.1,3-1.7,4.5c-0.5,1.3-1.1,2.6-1.7,3.9c-0.6,1.5-1.3,2.9-1.9,4.3c-0.6,1.3-1.3,2.6-2,3.9c-0.7,1.4-1.4,2.8-2.2,4.2
			c-0.7,1.3-1.4,2.5-2.2,3.8c-0.8,1.3-1.6,2.7-2.4,4c-0.8,1.2-1.6,2.4-2.4,3.7c-0.9,1.3-1.7,2.6-2.6,3.9c-0.8,1.2-1.7,2.4-2.6,3.5
			c-0.9,1.2-1.9,2.5-2.8,3.7c-0.9,1.1-1.9,2.3-2.8,3.4c-1,1.2-2,2.4-3.1,3.6c-1,1.1-2,2.2-3,3.2c-1.1,1.1-2.2,2.3-3.3,3.4
			c-1,1-2.1,2-3.2,3.1c-1.1,1.1-2.3,2.1-3.5,3.2c-1.1,1-2.2,1.9-3.4,2.9c-1.2,1-2.4,2-3.7,3c-1.2,0.9-2.4,1.8-3.6,2.7
			c-0.8,0.6-1.6,1.1-2.4,1.7c-26.8-6.4-51-21.7-68.6-43.1c1.6-0.2,3.1-0.4,4.7-0.7c0.2,0,0.4-0.1,0.6-0.1c2.1-0.3,4.2-0.7,6.3-1.1
			c0.6-0.1,1.2-0.2,1.8-0.4c1.5-0.3,3-0.6,4.5-1c0.7-0.2,1.4-0.3,2.1-0.5c1.5-0.4,3-0.8,4.5-1.2c0.6-0.2,1.1-0.3,1.7-0.5
			c2-0.6,4-1.2,6-1.8c0.3-0.1,0.6-0.2,0.9-0.3c1.7-0.6,3.4-1.1,5-1.7c0.6-0.2,1.3-0.5,1.9-0.7c1.4-0.5,2.7-1,4.1-1.6
			c0.6-0.3,1.3-0.5,1.9-0.8c1.5-0.6,3-1.3,4.5-2c0.4-0.2,0.8-0.4,1.2-0.6c1.9-0.9,3.7-1.8,5.5-2.7c0.5-0.3,1-0.5,1.5-0.8
			c1.4-0.7,2.7-1.4,4-2.2c0.6-0.3,1.2-0.7,1.9-1c1.2-0.7,2.5-1.4,3.7-2.2c0.6-0.3,1.1-0.7,1.7-1c1.7-1,3.3-2.1,4.9-3.2
			c0.1-0.1,0.2-0.1,0.3-0.2c1.7-1.1,3.3-2.3,5-3.5c0.5-0.4,1.1-0.8,1.6-1.2c1.1-0.8,2.3-1.7,3.4-2.6c0.6-0.4,1.1-0.9,1.7-1.3
			c1.2-0.9,2.3-1.9,3.4-2.8c0.5-0.4,0.9-0.8,1.4-1.2c1.5-1.3,3-2.7,4.5-4c0.4-0.3,0.7-0.7,1.1-1c1.1-1.1,2.3-2.2,3.4-3.3
			c0.5-0.5,1-1,1.5-1.6c1-1,1.9-2,2.9-3c0.5-0.5,1-1.1,1.5-1.6c1.1-1.2,2.2-2.4,3.2-3.6c0.3-0.3,0.6-0.7,0.9-1
			c1.3-1.5,2.6-3.1,3.8-4.7c0.4-0.5,0.8-1,1.2-1.6c0.9-1.1,1.7-2.3,2.6-3.4c0.5-0.6,0.9-1.2,1.4-1.9c0.8-1.1,1.6-2.3,2.4-3.4
			c0.4-0.6,0.8-1.2,1.2-1.7c1.1-1.7,2.2-3.4,3.3-5.1c0.2-0.3,0.4-0.6,0.6-0.9c0.9-1.5,1.8-3,2.6-4.5c0.4-0.7,0.7-1.3,1.1-2
			c0.7-1.2,1.3-2.4,1.9-3.7c0.4-0.7,0.7-1.4,1.1-2.1c0.2-0.4,0.4-0.7,0.6-1.1c0,0.7,0.1,1.4,0.1,2c0,0.9-0.1,1.8-0.2,2.8
			c0,0.1,0,0.4,0,0.4C524.8,543.3,524.8,543.4,524.8,543.5z M651.5,135.2c1.7-0.5,3.5-1.1,5.2-1.5c0.8-0.2,1.6-0.4,2.5-0.7
			c0.8-0.2,1.5-0.4,2.3-0.6c20.3,17.4,34.4,40.4,40.6,66c-1,0-2.1,0-3.1,0c-2.7,0-5.3,0.1-8,0.2c-0.9,0-1.7,0.1-2.6,0.2
			c-1.8,0.1-3.6,0.2-5.4,0.4c-1,0.1-2,0.2-3,0.3c-1.6,0.2-3.3,0.4-4.9,0.6c-1,0.1-2.1,0.3-3.1,0.5c-1.6,0.3-3.2,0.5-4.9,0.8
			c-1,0.2-2,0.4-3,0.6c-1.8,0.4-3.5,0.8-5.2,1.2c-0.8,0.2-1.7,0.4-2.5,0.6c-2.6,0.6-5.1,1.3-7.6,2.1c-0.1,0-0.2,0.1-0.3,0.1
			c-2.2,0.7-4.4,1.4-6.6,2.1c0-0.1,0-0.1-0.1-0.2c-0.1-0.4-0.2-0.7-0.3-1c-0.8-2.6-1.7-5.1-2.6-7.6c-0.3-0.9-0.7-1.8-1-2.8
			c-0.8-2-1.5-4-2.4-6c-0.4-0.9-0.7-1.8-1.1-2.7c-1-2.4-2.1-4.9-3.3-7.3c-0.2-0.4-0.3-0.7-0.5-1.1c-1.3-2.7-2.7-5.4-4.1-8.1
			c-0.4-0.8-0.9-1.6-1.3-2.4c-1.1-1.9-2.2-3.8-3.3-5.7c-0.5-0.9-1-1.7-1.5-2.6c-1.3-2.1-2.6-4.1-3.9-6.2c-0.4-0.5-0.7-1.1-1-1.6
			c-0.1-0.2-0.2-0.3-0.3-0.5c1.9-1.2,3.9-2.4,5.9-3.6c0.5-0.3,1-0.5,1.5-0.8c1.6-0.9,3.3-1.8,4.9-2.7c0.7-0.4,1.4-0.7,2.2-1.1
			c1.5-0.7,3-1.5,4.6-2.2c0.7-0.3,1.4-0.7,2.2-1c1.8-0.8,3.6-1.5,5.4-2.2c0.5-0.2,0.9-0.4,1.4-0.5c2.3-0.9,4.5-1.7,6.8-2.4
			C650.3,135.5,650.9,135.3,651.5,135.2z M579.6,101.9c22.7,0,44.4,6,63.7,17.4c-0.7,0.2-1.3,0.5-2,0.7c-2.3,0.8-4.5,1.6-6.8,2.5
			c-1.1,0.4-2.2,0.9-3.2,1.3c-2,0.9-4,1.7-6,2.7c-1.1,0.5-2.1,1-3.2,1.5c-2.1,1-4.2,2.1-6.3,3.3c-0.9,0.5-1.7,0.9-2.6,1.4
			c-2.9,1.6-5.7,3.3-8.5,5.1c-0.1,0-0.1,0.1-0.2,0.1c-0.3-0.3-0.6-0.7-0.9-1c-1.8-2.2-3.7-4.4-5.6-6.5c-0.8-0.9-1.5-1.8-2.3-2.7
			c-2.7-3-5.6-5.9-8.5-8.8c-0.6-0.6-1.2-1.1-1.8-1.6c-2.4-2.3-4.8-4.5-7.2-6.6c-1.1-1-2.2-1.9-3.3-2.8c-2-1.7-4-3.4-6.1-5
			c-0.5-0.4-0.9-0.8-1.4-1.1H579.6z M542.7,106.1c0.3,0.2,0.6,0.4,0.9,0.6c2.3,1.5,4.5,3,6.7,4.5c0.8,0.6,1.6,1.2,2.4,1.7
			c1.8,1.3,3.6,2.7,5.4,4c0.8,0.6,1.6,1.2,2.4,1.8c2.1,1.7,4.1,3.4,6.1,5.1c0.4,0.3,0.8,0.6,1.1,1c2.3,2.1,4.6,4.2,6.9,6.4
			c0.6,0.6,1.2,1.2,1.9,1.9c1.6,1.6,3.2,3.3,4.8,4.9c0.7,0.8,1.4,1.5,2.1,2.3c1.5,1.7,3,3.4,4.5,5.2c0.6,0.7,1.1,1.3,1.7,2
			c0.2,0.2,0.4,0.5,0.6,0.7c-0.1,0.1-0.2,0.2-0.4,0.3c-1.1,0.9-2.2,1.9-3.3,2.8c-1.4,1.2-2.9,2.4-4.2,3.6c-1.1,1-2.2,2-3.2,3
			c-1.3,1.2-2.7,2.5-3.9,3.8c-1.1,1.1-2.1,2.2-3.1,3.3c-1.2,1.3-2.5,2.6-3.6,3.9c-1,1.1-2,2.3-2.9,3.4c-1.1,1.3-2.3,2.7-3.3,4
			c-0.9,1.2-1.8,2.4-2.8,3.6c-1,1.4-2.1,2.8-3.1,4.2c-0.9,1.2-1.7,2.5-2.6,3.8c-0.9,1.4-1.9,2.8-2.8,4.3c-0.8,1.3-1.6,2.6-2.4,3.9
			c-0.9,1.5-1.7,2.9-2.5,4.4c-0.7,1.3-1.4,2.7-2.1,4.1c-0.4,0.7-0.8,1.5-1.2,2.2V106.1z M542.6,284.5c0-1.9,0-3.7,0.1-5.6
			c0,0,0,0,0,0c0-0.2,0-0.5,0-0.7v-5.1c0.1-1,0.1-2.1,0.2-3.1c0.1-0.8,0.2-1.6,0.3-2.4c0.2-2.1,0.5-4.2,0.8-6.3
			c0.2-1.1,0.4-2.2,0.6-3.4c0.3-1.7,0.6-3.5,0.9-5.2c0.2-1.2,0.5-2.4,0.8-3.6c0.4-1.6,0.7-3.2,1.2-4.8c0.3-1.2,0.7-2.5,1.1-3.7
			c0.4-1.5,0.9-3.1,1.4-4.6c0.4-1.2,0.8-2.5,1.3-3.7c0.5-1.5,1-3,1.6-4.4c0.5-1.2,1-2.5,1.5-3.7c0.6-1.4,1.2-2.9,1.8-4.3
			c0.5-1.2,1.1-2.4,1.7-3.6c0.7-1.4,1.4-2.8,2.1-4.1c0.6-1.2,1.2-2.4,1.9-3.5c0.7-1.3,1.5-2.7,2.3-4c0.7-1.1,1.4-2.3,2.1-3.4
			c0.8-1.3,1.7-2.6,2.5-3.9c0.7-1.1,1.5-2.2,2.2-3.3c0.9-1.3,1.8-2.5,2.8-3.8c0.8-1,1.6-2.1,2.4-3.1c1-1.3,2-2.5,3.1-3.7
			c0.8-1,1.6-1.9,2.5-2.9c1.1-1.3,2.3-2.5,3.4-3.7c0.8-0.9,1.7-1.8,2.5-2.6c1.3-1.3,2.6-2.5,4-3.8c0.8-0.7,1.6-1.5,2.4-2.2
			c1.7-1.5,3.4-3,5.2-4.4c0.5-0.4,1-0.9,1.5-1.3c0,0,0.1-0.1,0.1-0.1c0,0.1,0.1,0.1,0.1,0.2c0.2,0.4,0.5,0.7,0.7,1.1
			c1.3,2,2.6,4,3.9,6.1c0.5,0.8,0.9,1.6,1.4,2.3c1,1.7,2,3.4,2.9,5.1c0.4,0.8,0.9,1.6,1.3,2.4c1.1,2,2.1,4,3.1,6.1
			c0.2,0.5,0.5,1,0.7,1.5c1.2,2.5,2.3,5.1,3.4,7.6c0.3,0.7,0.6,1.4,0.9,2.1c0.8,1.9,1.5,3.8,2.3,5.8c0.3,0.9,0.7,1.8,1,2.7
			c0.7,1.9,1.3,3.8,2,5.7c0.3,0.8,0.5,1.6,0.8,2.4c0.1,0.3,0.2,0.7,0.3,1c-0.4,0.2-0.7,0.4-1.1,0.5c-0.8,0.4-1.6,0.8-2.4,1.2
			c-2,1-3.9,2-5.9,3c-0.8,0.4-1.6,0.9-2.4,1.3c-2.4,1.4-4.8,2.8-7.2,4.3c-0.2,0.1-0.3,0.2-0.5,0.3c-2.5,1.6-5,3.3-7.4,5
			c-0.7,0.5-1.4,1-2.1,1.5c-1.8,1.3-3.6,2.7-5.3,4c-0.7,0.5-1.3,1.1-2,1.6c-4.6,3.8-9,7.7-13.2,11.9c-0.6,0.6-1.2,1.2-1.8,1.8
			c-1.6,1.6-3.1,3.2-4.6,4.9c-0.6,0.6-1.1,1.2-1.7,1.9c-2,2.2-3.9,4.5-5.7,6.8c-0.1,0.1-0.2,0.3-0.3,0.4c-1.7,2.2-3.4,4.4-5,6.7
			c-0.5,0.7-1,1.4-1.5,2.2c-1.3,1.8-2.5,3.7-3.7,5.6c-0.4,0.7-0.9,1.4-1.3,2.1c-1.5,2.5-3,5.1-4.5,7.7c-0.2,0.3-0.3,0.6-0.5,1
			c-1,1.8-1.9,3.6-2.8,5.4c-0.1-0.7-0.1-1.5-0.1-2.2c0-0.9,0.1-1.8,0.2-2.7c0-0.2,0-0.4,0-0.6C542.6,288.2,542.6,286.4,542.6,284.5z
			 M542.7,378.8c0-0.2,0-0.4,0-0.6c-0.1-1.9-0.1-3.7-0.1-5.6c0-1.9,0-3.7,0.1-5.6c0-0.2,0-0.4,0-0.6c0-0.8-0.1-1.6-0.2-2.4
			c0.6-11.2,2.4-22.4,5.3-33.1c0,0,0,0,0,0c0.8-2.8,1.6-5.6,2.5-8.3c0.3-0.9,0.7-1.8,1-2.7c0.7-1.8,1.3-3.6,2-5.4
			c0.4-1.1,0.9-2.1,1.3-3.1c0.7-1.6,1.4-3.2,2.1-4.8c0.5-1.1,1.1-2.2,1.6-3.3c0.7-1.5,1.5-3,2.3-4.4c0.6-1.1,1.2-2.2,1.8-3.3
			c0.8-1.4,1.6-2.8,2.5-4.2c0.7-1.1,1.3-2.1,2-3.2c0.9-1.4,1.8-2.7,2.7-4c0.7-1,1.5-2.1,2.2-3.1c0.9-1.3,1.9-2.6,2.9-3.9
			c0.8-1,1.6-2,2.3-3c1-1.3,2.1-2.5,3.1-3.7c0.8-1,1.6-1.9,2.5-2.8c1.1-1.2,2.2-2.4,3.3-3.6c0.9-0.9,1.7-1.8,2.6-2.7
			c1.2-1.2,2.4-2.3,3.6-3.5c0.9-0.8,1.7-1.6,2.6-2.4c1.3-1.2,2.7-2.3,4-3.4c0.8-0.7,1.7-1.4,2.5-2.1c1.6-1.2,3.2-2.4,4.8-3.6
			c0.7-0.5,1.4-1.1,2.1-1.6c2.3-1.7,4.7-3.3,7.2-4.8c0.1-0.1,0.2-0.1,0.3-0.2c2.3-1.5,4.7-2.9,7.2-4.2c0.8-0.4,1.6-0.8,2.4-1.3
			c1.5-0.8,3-1.6,4.6-2.4c0,0.2,0.1,0.4,0.1,0.6c0.6,2.8,1.1,5.7,1.5,8.5c0.1,0.5,0.2,1.1,0.2,1.6c0.4,2.6,0.7,5.2,1,7.9
			c0,0.4,0.1,0.9,0.1,1.3c0.3,2.9,0.5,5.8,0.7,8.7c0,0.7,0.1,1.3,0.1,2c0.1,3,0.2,5.9,0.2,8.9c0,2.6-0.1,5.2-0.2,7.8
			c0,0.9-0.1,1.7-0.1,2.6c-0.1,1.7-0.2,3.5-0.3,5.2c-0.1,1-0.2,2-0.3,3c-0.2,1.6-0.3,3.2-0.5,4.8c-0.1,1-0.3,2-0.4,3
			c-0.1,0.6-0.2,1.3-0.3,1.9c-0.3,0.1-0.6,0.3-0.8,0.4c-1,0.4-1.9,0.8-2.9,1.3c-1.1,0.5-2.2,1-3.4,1.5c-1,0.5-1.9,0.9-2.9,1.4
			c-1.1,0.5-2.2,1.1-3.3,1.7c-0.9,0.5-1.9,1-2.8,1.5c-1.1,0.6-2.1,1.2-3.2,1.8c-0.9,0.5-1.8,1.1-2.8,1.6c-1,0.6-2.1,1.3-3.1,1.9
			c-0.9,0.6-1.8,1.1-2.7,1.7c-1,0.7-2,1.3-3,2c-0.9,0.6-1.8,1.2-2.6,1.8c-1,0.7-2,1.4-3,2.2c-0.9,0.6-1.7,1.3-2.5,1.9
			c-1,0.7-1.9,1.5-2.9,2.3c-0.8,0.7-1.6,1.3-2.5,2c-0.9,0.8-1.9,1.6-2.8,2.4c-0.8,0.7-1.6,1.4-2.4,2.1c-0.9,0.8-1.8,1.7-2.7,2.5
			c-0.8,0.7-1.5,1.4-2.3,2.1c-0.9,0.9-1.8,1.8-2.7,2.7c-0.7,0.7-1.4,1.5-2.1,2.2c-0.9,0.9-1.7,1.9-2.6,2.8c-0.7,0.7-1.4,1.5-2,2.2
			c-0.9,1-1.7,2-2.5,3c-0.6,0.7-1.3,1.5-1.9,2.2c-0.9,1.1-1.7,2.1-2.5,3.2c-0.6,0.7-1.1,1.4-1.7,2.2c-0.9,1.2-1.7,2.4-2.6,3.6
			c-0.5,0.7-1,1.3-1.4,2c-1.1,1.6-2.2,3.3-3.3,5c-0.2,0.3-0.3,0.5-0.5,0.8c-1.4,2.3-2.8,4.6-4.1,6.9c-0.4,0.6-0.7,1.2-1,1.9
			c-1.1,2-2.1,3.9-3.1,5.9c-0.2,0.3-0.3,0.6-0.5,0.9c0-0.7-0.1-1.4-0.1-2.1C542.5,380.6,542.6,379.7,542.7,378.8z M627.5,321.3
			c-0.2,0.7-0.4,1.5-0.6,2.2c-0.2,0.8-0.4,1.6-0.6,2.3c-0.4,1.4-0.8,2.8-1.3,4.2c-0.2,0.7-0.4,1.3-0.6,2c-0.7,2-1.3,4-2.1,6
			c-0.1,0.3-0.2,0.5-0.3,0.8c-0.6,1.8-1.3,3.5-2,5.2c-0.3,0.7-0.6,1.4-0.9,2.1c-0.5,1.3-1.1,2.6-1.6,3.8c-0.3,0.8-0.7,1.5-1,2.3
			c-0.5,1.2-1.1,2.4-1.7,3.6c-0.4,0.8-0.7,1.5-1.1,2.3c-0.6,1.2-1.2,2.4-1.8,3.6c-0.4,0.7-0.7,1.4-1.1,2.1c-0.8,1.4-1.5,2.8-2.3,4.2
			c-0.3,0.5-0.5,1-0.8,1.5c-1.1,1.8-2.2,3.7-3.3,5.5c-0.3,0.5-0.7,1-1,1.5c-0.8,1.3-1.7,2.6-2.5,3.9c-0.5,0.7-0.9,1.3-1.4,2
			c-0.8,1.1-1.5,2.2-2.3,3.3c-0.5,0.7-1,1.4-1.5,2.1c-0.8,1.1-1.6,2.2-2.4,3.2c-0.5,0.7-1,1.3-1.5,2c-0.9,1.1-1.8,2.3-2.8,3.4
			c-0.5,0.5-0.9,1.1-1.4,1.6c-1.4,1.6-2.8,3.3-4.3,4.9c-11.4,12.6-24.5,23.7-38.7,32.9c-0.1,0.1-0.2,0.1-0.3,0.2
			c0.9-5.7,2.1-11.4,3.7-17c0.5-1.8,1-3.7,1.6-5.5c4-12.7,9.6-24.9,16.8-36.2c1.7-2.7,3.5-5.3,5.3-7.9c0.3-0.5,0.7-1,1-1.4
			c1.8-2.5,3.7-4.8,5.6-7.2c0.4-0.4,0.8-0.9,1.1-1.3c2-2.4,4.1-4.8,6.3-7c0,0,0,0,0,0c2.2-2.3,4.5-4.5,6.8-6.6
			c0.4-0.4,0.8-0.8,1.3-1.2c2.3-2,4.6-4,6.9-5.9c0.4-0.4,0.9-0.7,1.3-1.1c2.5-2,5-3.9,7.6-5.7c0,0,0,0,0,0c2.6-1.8,5.2-3.5,7.9-5.1
			c0.5-0.3,1-0.6,1.5-0.9c2.6-1.5,5.2-3,7.9-4.4C627.1,321.5,627.3,321.4,627.5,321.3z M579.6,680h-36.9v-54.2
			c1.2,2.4,2.4,4.8,3.7,7.2c0.3,0.6,0.7,1.1,1,1.7c1.2,2.2,2.5,4.3,3.8,6.5c0.6,1,1.2,1.9,1.9,2.8c1.1,1.7,2.3,3.4,3.4,5.1
			c0.7,1,1.4,2,2.2,3c1.2,1.6,2.4,3.2,3.6,4.7c0.8,1,1.5,1.9,2.3,2.9c1.3,1.6,2.7,3.2,4.1,4.8c0.7,0.8,1.4,1.7,2.2,2.5
			c1.8,2,3.7,3.9,5.6,5.8c0.4,0.4,0.7,0.7,1,1.1c2.1,2.1,4.3,4.1,6.6,6.1C582.6,680,581.1,680,579.6,680z M608.4,676.6
			c-0.8-0.6-1.6-1.2-2.4-1.8c-1.2-0.9-2.3-1.7-3.5-2.6c-1.3-1-2.5-2-3.8-3.1c-1.1-0.9-2.2-1.9-3.3-2.8c-1.2-1.1-2.4-2.2-3.6-3.3
			c-1-1-2.1-2-3.1-3c-1.2-1.2-2.3-2.3-3.4-3.5c-1-1-1.9-2-2.9-3.1c-1.1-1.2-2.2-2.5-3.2-3.8c-0.9-1-1.8-2.1-2.6-3.2
			c-1.1-1.3-2.1-2.7-3.1-4.1c-0.8-1.1-1.6-2.1-2.3-3.2c-1-1.4-2-2.9-3-4.4c-0.7-1-1.4-2.1-2-3.1c-1-1.6-1.9-3.2-2.9-4.8
			c-0.6-1-1.2-2-1.7-3c-1-1.7-1.9-3.5-2.7-5.3c-0.5-0.9-0.9-1.8-1.4-2.7c-0.9-1.9-1.8-3.9-2.6-5.9c-0.3-0.8-0.7-1.6-1-2.3
			c-0.9-2.2-1.7-4.4-2.5-6.6c-0.2-0.6-0.5-1.2-0.7-1.9c-0.8-2.5-1.6-5-2.3-7.5c-0.1-0.4-0.3-0.8-0.4-1.2c-0.8-2.8-1.5-5.7-2.1-8.6
			c0-0.1-0.1-0.2-0.1-0.3c-1.6-7.1-2.5-14.4-3.1-21.8v-5.4c0-0.1,0-0.2,0-0.2c0,0,0,0,0,0c0-0.1,0-0.2,0-0.3
			c-0.1-1.8-0.1-3.5-0.1-5.3s0-3.5,0.1-5.3c0-0.1,0-0.4,0-0.5c0-0.1,0-0.2,0-0.3c0-0.9-0.1-1.8-0.2-2.8c0-0.7,0.1-1.4,0.1-2
			c0.2,0.4,0.4,0.8,0.6,1.2c0.3,0.6,0.6,1.3,1,1.9c0.7,1.3,1.4,2.6,2.1,3.9c0.3,0.6,0.6,1.2,1,1.8c0.9,1.6,1.9,3.2,2.8,4.8
			c0.1,0.2,0.2,0.4,0.4,0.6c1.1,1.8,2.2,3.5,3.4,5.3c0.3,0.5,0.7,1,1,1.5c0.8,1.2,1.7,2.5,2.5,3.7c0.4,0.6,0.8,1.2,1.3,1.7
			c0.9,1.2,1.8,2.4,2.7,3.6c0.4,0.5,0.7,1,1.1,1.4c1.3,1.6,2.6,3.2,3.9,4.8c0.2,0.3,0.5,0.5,0.7,0.8c1.1,1.3,2.3,2.6,3.4,3.8
			c0.5,0.5,0.9,1,1.4,1.5c1,1,2,2.1,3,3.1c0.5,0.5,1,1,1.5,1.5c1.1,1.1,2.3,2.2,3.5,3.3c0.3,0.3,0.7,0.6,1,0.9c1.5,1.4,3,2.7,4.6,4
			c0.4,0.4,0.9,0.7,1.3,1.1c1.1,1,2.3,1.9,3.5,2.8c0.6,0.4,1.1,0.9,1.7,1.3c1.1,0.9,2.3,1.7,3.4,2.6c0.5,0.4,1.1,0.8,1.6,1.2
			c1.6,1.2,3.2,2.3,4.9,3.4c0.1,0.1,0.3,0.2,0.4,0.2c1.6,1.1,3.3,2.1,4.9,3.1c0.6,0.4,1.1,0.7,1.7,1c1.2,0.7,2.4,1.5,3.7,2.2
			c0.6,0.4,1.3,0.7,1.9,1.1c1.3,0.7,2.6,1.4,4,2.1c0.5,0.3,1,0.5,1.5,0.8c1.8,0.9,3.7,1.8,5.5,2.7c0.4,0.2,0.9,0.4,1.3,0.6
			c1.5,0.7,2.9,1.3,4.4,1.9c0.7,0.3,1.3,0.5,2,0.8c1.3,0.5,2.7,1.1,4,1.6c0.6,0.2,1.3,0.5,1.9,0.7c1.6,0.6,3.3,1.2,5,1.7
			c0.3,0.1,0.6,0.2,1,0.3c2,0.6,4,1.2,6,1.8c0.6,0.2,1.2,0.3,1.8,0.5c1.5,0.4,2.9,0.8,4.4,1.1c0.7,0.2,1.4,0.3,2.1,0.5
			c1.5,0.3,3,0.7,4.5,1c0.6,0.1,1.2,0.2,1.8,0.4c2.1,0.4,4.2,0.8,6.3,1.1c0.2,0,0.4,0.1,0.6,0.1c1.6,0.2,3.1,0.5,4.7,0.7
			C659.4,655,635.2,670.3,608.4,676.6z M705.5,554c0,22.1-5.9,43.8-17,63c-0.2,0-0.4,0-0.7,0c-1.1-0.1-2.1-0.2-3.1-0.3
			c-1.1-0.1-2.1-0.2-3.2-0.3c-1-0.1-2.1-0.3-3.1-0.4c-1-0.1-2.1-0.3-3.1-0.4c-1-0.2-2-0.3-3-0.5c-1-0.2-2.1-0.4-3.1-0.5
			c-1-0.2-2-0.4-3-0.6c-1-0.2-2.1-0.4-3.1-0.7c-1-0.2-2-0.5-2.9-0.7c-1-0.3-2-0.5-3-0.8c-1-0.3-1.9-0.5-2.9-0.8c-1-0.3-2-0.6-3-0.9
			c-0.9-0.3-1.9-0.6-2.8-0.9c-1-0.3-2-0.7-3-1c-0.9-0.3-1.9-0.7-2.8-1c-1-0.4-2-0.8-2.9-1.1c-0.9-0.4-1.8-0.7-2.7-1.1
			c-1-0.4-1.9-0.8-2.9-1.3c-0.9-0.4-1.8-0.8-2.7-1.2c-0.9-0.4-1.9-0.9-2.8-1.4c-0.9-0.4-1.7-0.9-2.6-1.3c-0.9-0.5-1.9-1-2.8-1.5
			c-0.8-0.5-1.7-0.9-2.5-1.4c-0.9-0.5-1.8-1-2.7-1.6c-0.8-0.5-1.7-1-2.5-1.5c-0.9-0.6-1.8-1.1-2.6-1.7c-0.8-0.5-1.6-1.1-2.4-1.6
			c-0.9-0.6-1.7-1.2-2.6-1.8c-0.8-0.6-1.6-1.1-2.4-1.7c-0.8-0.6-1.7-1.2-2.5-1.9c-0.8-0.6-1.5-1.2-2.3-1.8c-0.8-0.6-1.6-1.3-2.4-2
			c-0.7-0.6-1.5-1.2-2.2-1.9c-0.8-0.7-1.5-1.4-2.3-2.1c-0.7-0.7-1.4-1.3-2.2-2c-0.8-0.7-1.5-1.4-2.2-2.1c-0.7-0.7-1.4-1.4-2.1-2.1
			c-0.7-0.7-1.4-1.5-2.1-2.2c-0.7-0.7-1.4-1.4-2-2.1c-0.7-0.8-1.4-1.5-2.1-2.3c-0.7-0.7-1.3-1.5-1.9-2.2c-0.7-0.8-1.3-1.6-2-2.4
			c-0.6-0.8-1.3-1.5-1.9-2.3c-0.6-0.8-1.2-1.6-1.9-2.4c-0.6-0.8-1.2-1.6-1.8-2.4c-0.6-0.8-1.2-1.7-1.8-2.5c-0.6-0.8-1.1-1.6-1.7-2.5
			c-0.6-0.9-1.1-1.7-1.7-2.6c-0.5-0.9-1.1-1.7-1.6-2.6c-0.5-0.9-1.1-1.8-1.6-2.7c-0.5-0.9-1-1.7-1.5-2.6c-0.5-0.9-1-1.9-1.5-2.8
			c-0.5-0.9-0.9-1.8-1.4-2.7c-0.5-1-0.9-1.9-1.4-2.9c-0.4-0.9-0.9-1.8-1.3-2.7c-0.5-1-0.9-2-1.3-3.1c-0.4-0.9-0.8-1.8-1.1-2.7
			c-0.5-1.1-0.9-2.2-1.3-3.4c-0.3-0.8-0.6-1.6-1-2.5c-0.5-1.3-0.9-2.7-1.4-4.1c-0.2-0.6-0.4-1.3-0.6-1.9c-0.6-2-1.2-4-1.8-6.1
			c0,0,0,0,0,0c0,0,0,0,0,0c-3-10.8-4.7-21.9-5.3-33.1c0-0.8,0.1-1.6,0.2-2.4c0-0.2,0-0.4,0-0.6c-0.1-1.7-0.1-3.4-0.1-5.2h163V554z
			 M705.5,443.5H564.1c0.1-0.1,0.3-0.2,0.4-0.3c2.5-1.9,5-3.8,7.5-5.8c0.5-0.4,1.1-0.9,1.6-1.3c2.2-1.8,4.4-3.7,6.5-5.6
			c0.3-0.3,0.6-0.5,0.9-0.8c2.3-2.1,4.6-4.3,6.9-6.5c0.5-0.5,1.1-1.1,1.6-1.6c2.3-2.3,4.5-4.6,6.6-7c1.7-1.8,3.3-3.7,4.9-5.6
			c0.5-0.6,1-1.3,1.6-1.9c1.1-1.3,2.1-2.6,3.1-3.9c0.6-0.8,1.2-1.6,1.8-2.3c0.9-1.2,1.8-2.4,2.7-3.6c0.6-0.8,1.2-1.7,1.8-2.6
			c0.8-1.2,1.6-2.3,2.4-3.5c0.6-0.9,1.2-1.8,1.8-2.7c0.8-1.1,1.5-2.3,2.2-3.4c0.6-0.9,1.2-1.9,1.7-2.8c0.7-1.1,1.4-2.3,2.1-3.5
			c0.6-1,1.1-2,1.7-2.9c0.7-1.2,1.3-2.3,1.9-3.5c0.5-1,1.1-2,1.6-3c0.6-1.2,1.2-2.3,1.8-3.5c0.5-1,1-2.1,1.5-3.1
			c0.6-1.2,1.1-2.4,1.7-3.6c0.5-1,0.9-2.1,1.4-3.2c0.5-1.2,1-2.4,1.5-3.6c0.4-1.1,0.9-2.1,1.3-3.2c0.5-1.2,0.9-2.4,1.4-3.7
			c0.4-1.1,0.8-2.2,1.2-3.3c0.4-1.2,0.9-2.5,1.3-3.7c0.4-1.1,0.7-2.2,1.1-3.3c0.4-1.3,0.8-2.5,1.1-3.8c0.3-1.1,0.6-2.2,0.9-3.3
			c0.4-1.3,0.7-2.6,1-3.9c0.3-1.1,0.6-2.2,0.8-3.3c0.3-1.3,0.6-2.6,0.9-3.9c0.2-1.1,0.5-2.2,0.7-3.3c0.1-0.4,0.2-0.8,0.3-1.2
			c0.4-0.1,0.8-0.3,1.2-0.4c0.9-0.3,1.9-0.6,2.8-0.9c1.2-0.4,2.5-0.8,3.7-1.1c1-0.3,1.9-0.5,2.9-0.8c1.2-0.3,2.5-0.7,3.8-1
			c1-0.2,1.9-0.5,2.9-0.7c1.3-0.3,2.5-0.5,3.8-0.8c1-0.2,2-0.4,2.9-0.6c1.3-0.2,2.6-0.4,3.9-0.6c1-0.1,1.9-0.3,2.9-0.4
			c1.4-0.2,2.7-0.3,4.1-0.5c0.9-0.1,1.8-0.2,2.7-0.3c1.5-0.1,3.1-0.2,4.6-0.3c0.8,0,1.5-0.1,2.3-0.1c2.3-0.1,4.6-0.2,6.9-0.2
			c2.2,0,4.4,0.1,6.6,0.2V443.5z M705.5,286.6c-2.2-0.1-4.4-0.1-6.6-0.1c-2.4,0-4.8,0.1-7.3,0.2c-0.7,0-1.5,0.1-2.2,0.1
			c-1.7,0.1-3.5,0.2-5.2,0.4c-0.8,0.1-1.6,0.1-2.3,0.2c-1.9,0.2-3.8,0.4-5.7,0.7c-0.5,0.1-1,0.1-1.5,0.2c-2.4,0.3-4.7,0.7-7.1,1.1
			c-0.6,0.1-1.2,0.2-1.9,0.4c-1.8,0.3-3.5,0.7-5.3,1.1c-0.8,0.2-1.6,0.4-2.3,0.5c-1.7,0.4-3.4,0.8-5.1,1.3c-0.7,0.2-1.3,0.4-2,0.5
			c-0.3,0.1-0.5,0.1-0.8,0.2c0.1-0.5,0.1-1.1,0.1-1.6c0.2-2.3,0.4-4.6,0.5-6.9c0.1-1.1,0.2-2.2,0.2-3.2c0.2-3.4,0.3-6.8,0.3-10.2
			c0-3.6-0.1-7.1-0.3-10.7c0-0.6,0-1.2-0.1-1.7c-0.2-3.4-0.5-6.8-0.8-10.2c-0.1-0.6-0.1-1.3-0.2-1.9c-0.4-3.4-0.9-6.9-1.4-10.3
			c-0.1-0.3-0.1-0.7-0.2-1c-0.6-3.3-1.2-6.6-1.9-9.9c-0.1-0.3-0.1-0.6-0.2-0.8c0,0,0,0,0,0c0.4-0.1,0.8-0.3,1.2-0.4
			c1.9-0.6,3.8-1.3,5.6-1.9c0.8-0.2,1.6-0.5,2.5-0.7c1.5-0.4,3-0.8,4.5-1.2c0.9-0.2,1.8-0.4,2.8-0.7c1.4-0.3,2.8-0.7,4.3-0.9
			c1-0.2,1.9-0.4,2.9-0.6c1.4-0.3,2.8-0.5,4.3-0.7c1-0.2,1.9-0.3,2.9-0.4c1.5-0.2,2.9-0.4,4.4-0.5c0.9-0.1,1.8-0.2,2.8-0.3
			c1.6-0.1,3.2-0.3,4.9-0.4c0.8,0,1.6-0.1,2.3-0.1c2.4-0.1,4.8-0.2,7.3-0.2c2,0,4,0,6.1,0.1c0.4,3.9,0.6,7.9,0.6,11.8V286.6z"/>
	</g>
	<g>
		<path class="st0" d="M110.6,798v17.9h-28v81.8H61.3v-81.8H33.5V798H110.6z"/>
		<path class="st0" d="M216.6,879.8v17.9h-66.2V798h64.1v17.9h-42.8v22.7H208v17.2h-36.3v24.1H216.6z"/>
		<path class="st0" d="M259.5,897.7V798h35c11.9,0,21.3,2.9,28.2,8.7c6.9,5.8,10.3,13.8,10.3,24.2c0,6.7-1.7,12.6-5.1,17.5
			c-3.4,4.9-8,8.6-13.9,10.9l20.9,38.5h-22.6l-17.6-34.9h-14.4v34.9H259.5z M295.1,815.8h-14.7v29.8h15.2c5,0,8.9-1.3,11.7-3.8
			c2.8-2.5,4.2-6.2,4.2-11c0-4.8-1.5-8.5-4.4-11.1C304.2,817.1,300.2,815.8,295.1,815.8z"/>
		<path class="st0" d="M377.6,897.7V798h35c11.9,0,21.3,2.9,28.2,8.7c6.9,5.8,10.3,13.8,10.3,24.2c0,6.7-1.7,12.6-5.1,17.5
			c-3.4,4.9-8,8.6-13.9,10.9l20.9,38.5h-22.6l-17.6-34.9h-14.4v34.9H377.6z M413.2,815.8h-14.7v29.8h15.2c5,0,8.9-1.3,11.7-3.8
			c2.8-2.5,4.2-6.2,4.2-11c0-4.8-1.5-8.5-4.4-11.1C422.3,817.1,418.3,815.8,413.2,815.8z"/>
		<path class="st0" d="M506.5,897.7h-22.3l48.3-101.2h0.8l48.5,101.2h-22.3l-8-17.6h-37.2L506.5,897.7z M520.8,865.1h24.4
			c-5.5-12.6-9.6-22.5-12-29.6L528,848C524.5,856.5,522.1,862.2,520.8,865.1z"/>
		<path class="st0" d="M619.6,897.7V798h35c11.9,0,21.3,2.9,28.2,8.7c6.9,5.8,10.3,13.8,10.3,24.2c0,6.7-1.7,12.6-5.1,17.5
			c-3.4,4.9-8,8.6-13.9,10.9l20.9,38.5h-22.6l-17.6-34.9h-14.4v34.9H619.6z M655.2,815.8h-14.7v29.8h15.2c5,0,8.9-1.3,11.7-3.8
			s4.2-6.2,4.2-11c0-4.8-1.5-8.5-4.4-11.1C664.3,817.1,660.3,815.8,655.2,815.8z"/>
		<path class="st0" d="M759,798v99.7h-21.3V798H759z"/>
		<path class="st0" d="M868.9,798h21.3v63.4c0,11.7-3.7,21-11.1,28c-7.4,6.8-17.6,10.2-30.6,10.2s-23.2-3.4-30.6-10.2
			c-7.4-6.9-11.1-16.2-11.1-28V798h21.3v61.3c0,6.6,1.8,11.7,5.3,15.3c3.6,3.6,8.6,5.5,15,5.5c6.6,0,11.6-1.8,15.1-5.4
			c3.5-3.6,5.3-8.7,5.3-15.4V798z"/>
		<path class="st0" d="M1008.3,846.2l-22.3,23.9l-22.3-23.9l-5.3-4.6v56.1h-20.3V796.5h0.4l47.5,47.9l47.5-47.9h0.4v101.2h-20.3
			v-56.1L1008.3,846.2z"/>
	</g>
</g>
<g>
	<path class="st0" d="M48.8,934.9v50.9h-8.9v-50.9H48.8z"/>
	<path class="st0" d="M108.5,934.9v51.7h-0.2l-29.8-30.5l-2.5-2.3v32h-8.8v-51.7h0.3l29.7,30.4l2.5,2.4v-32H108.5z"/>
	<path class="st0" d="M142.7,985.8h-15.7v-50.9h15.5c8.4,0,15.1,2.4,20.1,7.1c5.1,4.7,7.6,10.8,7.6,18.4c0,7.5-2.5,13.7-7.6,18.5
		C157.7,983.5,151,985.8,142.7,985.8z M142.5,942.4H136v35.9h6.7c5.7,0,10.2-1.6,13.6-4.9c3.4-3.3,5.1-7.6,5.1-13
		c0-5.3-1.7-9.6-5.2-12.9C152.7,944.1,148.2,942.4,142.5,942.4z"/>
	<path class="st0" d="M182.1,960.4c0-7.3,2.5-13.5,7.6-18.7c5-5.1,11.3-7.7,18.8-7.7c7.5,0,13.7,2.5,18.7,7.6
		c5.1,5,7.6,11.3,7.6,18.7c0,7.4-2.5,13.7-7.6,18.8c-5,5-11.3,7.6-18.8,7.6c-7.5,0-13.8-2.5-18.8-7.6
		C184.6,974,182.1,967.8,182.1,960.4z M191,960.4c0,5.2,1.6,9.6,4.9,13c3.3,3.4,7.5,5.2,12.5,5.2c5,0,9.2-1.7,12.4-5.2
		c3.3-3.4,4.9-7.8,4.9-13c0-5.2-1.7-9.5-4.9-12.9c-3.2-3.5-7.4-5.2-12.4-5.2c-5,0-9.2,1.7-12.5,5.2C192.7,950.9,191,955.2,191,960.4
		z"/>
	<path class="st0" d="M246.7,960.4c0-7.3,2.5-13.5,7.6-18.7c5-5.1,11.3-7.7,18.8-7.7c7.5,0,13.7,2.5,18.7,7.6
		c5.1,5,7.6,11.3,7.6,18.7c0,7.4-2.5,13.7-7.6,18.8c-5,5-11.3,7.6-18.8,7.6c-7.5,0-13.8-2.5-18.8-7.6
		C249.2,974,246.7,967.8,246.7,960.4z M255.6,960.4c0,5.2,1.6,9.6,4.9,13s7.5,5.2,12.5,5.2c5,0,9.2-1.7,12.4-5.2
		c3.3-3.4,4.9-7.8,4.9-13c0-5.2-1.7-9.5-4.9-12.9c-3.2-3.5-7.4-5.2-12.4-5.2c-5,0-9.2,1.7-12.5,5.2
		C257.2,950.9,255.6,955.2,255.6,960.4z"/>
	<path class="st0" d="M314.4,985.8v-50.9h17.2c5.8,0,10.4,1.4,13.8,4.3c3.3,2.9,5,6.8,5,11.9c0,3.5-0.9,6.5-2.8,9
		c-1.8,2.5-4.3,4.3-7.3,5.3l11.1,20.4h-9.5l-9.8-18.9h-9v18.9H314.4z M331.6,942.4h-8.5v17.3h8.9c2.9,0,5.2-0.8,6.9-2.3
		c1.7-1.5,2.5-3.6,2.5-6.4c0-2.8-0.9-4.9-2.6-6.4C337.1,943.2,334.7,942.4,331.6,942.4z"/>
	<path class="st0" d="M397.4,986.7c-5.3,0-10.3-1-14.9-2.9v-8.7c4.5,2.3,9,3.5,13.6,3.7c2,0,3.7-0.2,5.1-0.6
		c3.9-0.9,5.8-2.7,5.8-5.4c0-2-0.8-3.6-2.3-4.9c-1.6-1.3-4.3-2.7-8.3-4.1c-5-1.8-8.7-3.9-10.9-6.2c-2.2-2.4-3.4-5.5-3.4-9.3
		c0-4.4,1.6-7.8,4.9-10.4c3.3-2.6,7.6-3.9,12.8-3.9c4.6,0,9,0.8,13,2.5v8.3c-3.6-2-7.7-3-12.4-3c-3,0-5.3,0.6-7.1,1.7
		c-1.7,1.1-2.6,2.7-2.6,4.6c0,1.8,0.8,3.4,2.3,4.7c1.6,1.3,4.3,2.7,8.1,4.1c5.1,1.9,8.8,4,11,6.3s3.4,5.4,3.4,9.2
		c0,4.5-1.6,8-4.8,10.5C407.5,985.5,403.1,986.7,397.4,986.7z"/>
	<path class="st0" d="M467.3,956.5L454,971.8l-13.3-15.3l-2-2v31.3h-8.6v-51.7h0.1l23.7,26.3l23.7-26.3h0.1v51.7h-8.5v-31.3
		L467.3,956.5z"/>
	<path class="st0" d="M499.4,985.8h-9.3l24.1-51.7h0.3l24.1,51.7h-9.3l-4.5-10.1H504L499.4,985.8z M506.9,969.1h15
		c-3-6.9-5.5-12.9-7.4-18C510.8,959.8,508.3,965.8,506.9,969.1z"/>
	<path class="st0" d="M550.9,985.8v-50.9h17.2c5.8,0,10.4,1.4,13.8,4.3c3.3,2.9,5,6.8,5,11.9c0,3.5-0.9,6.5-2.8,9
		c-1.8,2.5-4.3,4.3-7.3,5.3l11.1,20.4h-9.5l-9.8-18.9h-9v18.9H550.9z M568.1,942.4h-8.5v17.3h8.9c2.9,0,5.2-0.8,6.9-2.3
		c1.7-1.5,2.5-3.6,2.5-6.4c0-2.8-0.9-4.9-2.6-6.4C573.7,943.2,571.3,942.4,568.1,942.4z"/>
	<path class="st0" d="M636.1,934.9v7.5h-14.8v43.4h-8.9v-43.4h-14.8v-7.5H636.1z"/>
	<path class="st0" d="M708.9,962.8v20c-4.9,2.6-10.5,3.9-17,3.9c-7.8,0-14.3-2.5-19.4-7.5c-5.1-5-7.6-11.3-7.6-18.9
		c0-7.5,2.6-13.8,7.7-18.8c5.2-5,11.7-7.6,19.4-7.6c5.4,0,10.6,1.2,15.6,3.5v8.3c-4.9-2.4-10-3.7-15.3-3.7c-5.6,0-10,1.7-13.4,5.2
		c-3.4,3.4-5.1,7.8-5.1,13c0,5.3,1.7,9.7,5,13.1c3.4,3.4,7.8,5.2,13.1,5.2c3.2,0,6-0.5,8.4-1.4v-14.4H708.9z"/>
	<path class="st0" d="M727.7,985.8h-9.3l24.1-51.7h0.3l24.1,51.7h-9.3l-4.5-10.1h-20.8L727.7,985.8z M735.1,969.1h15
		c-3-6.9-5.5-12.9-7.4-18C739.1,959.8,736.6,965.8,735.1,969.1z"/>
	<path class="st0" d="M779.1,985.8v-50.9h17.2c5.8,0,10.4,1.4,13.8,4.3c3.3,2.9,5,6.8,5,11.9c0,3.5-0.9,6.5-2.8,9
		c-1.8,2.5-4.3,4.3-7.3,5.3l11.1,20.4h-9.5l-9.8-18.9h-9v18.9H779.1z M796.4,942.4h-8.5v17.3h8.9c2.9,0,5.2-0.8,6.9-2.3
		c1.7-1.5,2.5-3.6,2.5-6.4c0-2.8-0.9-4.9-2.6-6.4C801.9,943.2,799.5,942.4,796.4,942.4z"/>
	<path class="st0" d="M846.8,985.8h-15.7v-50.9h15.5c8.4,0,15.1,2.4,20.1,7.1c5.1,4.7,7.6,10.8,7.6,18.4c0,7.5-2.5,13.7-7.6,18.5
		C861.7,983.5,855.1,985.8,846.8,985.8z M846.5,942.4H840v35.9h6.7c5.7,0,10.2-1.6,13.6-4.9c3.4-3.3,5.1-7.6,5.1-13
		c0-5.3-1.7-9.6-5.2-12.9C856.8,944.1,852.2,942.4,846.5,942.4z"/>
	<path class="st0" d="M922.4,978.3v7.5h-33.1v-50.9h32v7.5h-23.1v14h19.6v7.3h-19.6v14.6H922.4z"/>
	<path class="st0" d="M978.6,934.9v51.7h-0.2l-29.8-30.5l-2.5-2.3v32h-8.8v-51.7h0.3l29.7,30.4l2.5,2.4v-32H978.6z"/>
	<path class="st0" d="M1009.1,986.7c-5.3,0-10.3-1-14.9-2.9v-8.7c4.5,2.3,9,3.5,13.6,3.7c2,0,3.7-0.2,5.1-0.6
		c3.9-0.9,5.8-2.7,5.8-5.4c0-2-0.8-3.6-2.3-4.9c-1.6-1.3-4.3-2.7-8.3-4.1c-5-1.8-8.7-3.9-10.9-6.2c-2.2-2.4-3.4-5.5-3.4-9.3
		c0-4.4,1.6-7.8,4.9-10.4c3.3-2.6,7.6-3.9,12.8-3.9c4.6,0,9,0.8,13,2.5v8.3c-3.6-2-7.7-3-12.4-3c-3,0-5.3,0.6-7.1,1.7
		s-2.6,2.7-2.6,4.6c0,1.8,0.8,3.4,2.3,4.7c1.6,1.3,4.3,2.7,8.1,4.1c5.1,1.9,8.8,4,11,6.3s3.4,5.4,3.4,9.2c0,4.5-1.6,8-4.8,10.5
		C1019.2,985.5,1014.8,986.7,1009.1,986.7z"/>
</g>
</svg>
