<svg xmlns="http://www.w3.org/2000/svg" viewBox="0 0 384.51 355.1"><defs><style>.cls-1,.cls-2{fill:#fff;}.cls-2{font-size:27.17px;font-family:Brother1816-Medium, "Brother 1816";font-weight:500;letter-spacing:0.09em;}.cls-3{letter-spacing:0.09em;}.cls-4{letter-spacing:0.05em;}.cls-5{letter-spacing:0.05em;}</style></defs><g id="Capa_2" data-name="Capa 2"><g id="Capa_1-2" data-name="Capa 1"><path class="cls-1" d="M264.42,46.92A55.37,55.37,0,0,0,209.88,0H174.63a55.17,55.17,0,0,0-55.16,55.16V180.52A54.8,54.8,0,0,0,128.09,210a55,55,0,0,0,46.54,25.67h35.25a55.08,55.08,0,0,0,11-1.11A55.66,55.66,0,0,0,256.42,210,54.8,54.8,0,0,0,265,180.52V55.16A55.65,55.65,0,0,0,264.42,46.92Zm-77,65.47-.42-.74c-.51-.9-1-1.78-1.58-2.66s-1-1.48-1.46-2.2c-.16-.24-.33-.47-.49-.7-.35-.49-.69-1-1-1.45-.2-.28-.42-.54-.62-.81-.33-.43-.66-.86-1-1.28l-.71-.84c-.33-.39-.66-.79-1-1.17l-.77-.85c-.34-.37-.67-.74-1-1.1l-.82-.83c-.34-.35-.69-.7-1-1s-.57-.55-.86-.82-.7-.66-1.06-1l-.9-.79-1.09-.94-.93-.76-1.13-.88-1-.73L167.41,90l-1-.69-1.17-.79-1-.65c-.4-.25-.8-.5-1.21-.74L162,86.49l-1.24-.69c-.35-.19-.71-.39-1.07-.57l-1.26-.64-1.1-.54L156,83.47l-1.12-.5-.32-.14c0-.24-.07-.49-.11-.73l-.15-1.18c-.07-.61-.14-1.22-.19-1.83,0-.39-.08-.78-.11-1.17-.05-.66-.09-1.33-.13-2,0-.33,0-.66-.05-1,0-1-.07-2-.07-3s0-2.29.09-3.43c0-.25,0-.5,0-.75.06-1.11.14-2.23.25-3.34l.06-.5c.1-1,.23-2,.38-3l.09-.61c.17-1.1.37-2.19.59-3.28,0-.08,0-.16,0-.24.6.29,1.19.6,1.77.91.31.17.62.32.92.49,1,.53,1.89,1.08,2.81,1.66l.05,0q1.41.9,2.76,1.86l.76.57c.64.47,1.27.94,1.88,1.43.32.25.63.52.94.78.53.45,1.07.89,1.59,1.35l1,.91c.48.45,1,.9,1.43,1.36s.64.66,1,1,.88.92,1.3,1.39.63.71.94,1.07L175.59,73l.89,1.13,1.12,1.5c.28.39.56.78.83,1.18s.7,1,1,1.56.52.81.77,1.22.64,1.08,1,1.63.47.82.7,1.24.59,1.14.87,1.72c.21.41.42.82.61,1.24.29.61.55,1.23.82,1.85.17.39.35.79.51,1.19.27.69.53,1.39.78,2.09.12.35.26.69.37,1,.36,1.06.69,2.12,1,3.19h0a59,59,0,0,1,2.06,12.72c0,.31,0,.63-.06.94a.89.89,0,0,0,0,.23c0,.71,0,1.42,0,2.14s0,1.42,0,2.13a.88.88,0,0,0,0,.23c0,.35.05.7.06,1.06s0,.53,0,.79l-.21-.4Q188.06,113.49,187.46,112.39Zm.78,22.74-.1-.06a74.94,74.94,0,0,1-14.89-12.65c-.56-.62-1.11-1.24-1.65-1.88l-.5-.61c-.37-.44-.73-.88-1.09-1.33l-.57-.73-1-1.27-.56-.76-.93-1.32c-.17-.24-.34-.48-.5-.73-.35-.51-.68-1-1-1.55-.12-.17-.23-.35-.35-.53-.43-.7-.86-1.4-1.27-2.11l-.28-.5-.92-1.66-.41-.79c-.25-.47-.49-.94-.73-1.42l-.42-.86c-.22-.47-.44-.94-.65-1.41-.14-.28-.27-.57-.39-.86-.22-.5-.43-1-.64-1.5-.11-.26-.22-.53-.32-.79-.27-.67-.53-1.35-.78-2l-.1-.27c-.28-.77-.55-1.55-.8-2.33-.08-.25-.16-.5-.23-.75-.17-.54-.34-1.08-.49-1.62-.09-.3-.17-.6-.26-.91s-.14-.56-.22-.84l.22.11c1,.54,2.05,1.11,3.05,1.7l.57.35c1,.63,2.05,1.28,3,2h0c1,.69,2,1.42,2.9,2.17.18.13.35.27.52.41.91.73,1.8,1.49,2.66,2.27l.5.46c.88.82,1.76,1.66,2.59,2.54h0c.83.87,1.63,1.77,2.41,2.69.14.18.29.35.44.52q1.11,1.35,2.16,2.76l.39.55c.71,1,1.4,2,2.05,3h0c.39.62.78,1.25,1.14,1.88a60,60,0,0,1,7.35,20.65Zm.64-54.78c0,.28,0,.56,0,.85-.36-.72-.74-1.43-1.12-2.14l-.15-.29c-.55-1-1.13-2-1.73-3l-.49-.77c-.47-.74-.95-1.46-1.45-2.18-.18-.27-.37-.54-.56-.8-.63-.9-1.28-1.78-2-2.64a.44.44,0,0,1-.08-.11c-.72-.89-1.46-1.77-2.21-2.63l-.63-.7c-.58-.64-1.17-1.28-1.78-1.9l-.67-.69q-2.43-2.41-5.09-4.59l-.78-.61c-.67-.53-1.35-1-2-1.55l-.8-.58c-.93-.66-1.87-1.3-2.84-1.91l-.2-.13c-.9-.56-1.82-1.1-2.75-1.63l-.93-.51c-.74-.4-1.49-.79-2.24-1.16l-.93-.45-.41-.21c0-.13.07-.27.11-.4.09-.3.19-.6.29-.89.24-.75.49-1.5.76-2.24l.36-1q.43-1.14.9-2.28l.31-.76c.42-1,.86-2,1.33-3,.08-.17.17-.34.25-.5.39-.81.8-1.61,1.22-2.4.16-.3.33-.6.49-.91.37-.67.76-1.34,1.15-2l.53-.89c.48-.78,1-1.55,1.48-2.32.09-.14.18-.29.28-.43a.35.35,0,0,1,0-.08l.06,0c.2.16.38.33.58.5.68.55,1.34,1.11,2,1.69.31.28.6.57.91.86.51.48,1,1,1.52,1.46.33.33.64.67,1,1s.9.94,1.33,1.42.63.74.95,1.11.8.95,1.18,1.43.62.79.92,1.19.72,1,1.07,1.46.58.83.86,1.25.66,1,1,1.5.53.87.79,1.31.6,1,.89,1.53l.72,1.35c.27.53.54,1.06.79,1.59s.44.92.65,1.38.48,1.09.71,1.64.39.94.57,1.41.42,1.13.62,1.7.33.94.49,1.42.36,1.18.53,1.77.28.94.4,1.42.31,1.24.45,1.86c.11.46.22.92.32,1.38.13.67.24,1.34.36,2,.07.44.15.86.22,1.3.12.8.2,1.61.29,2.42,0,.31.08.62.11.93s.05.79.08,1.19v2.23h0v0c0,.71,0,1.43,0,2.14s0,1.43,0,2.14a.88.88,0,0,0,0,.23C188.83,79.65,188.87,80,188.88,80.35Zm-.07-5.69h0v0h0ZM182,13.26l.94-.73c.66-.52,1.34-1,2-1.52l1-.69c.83-.58,1.67-1.14,2.52-1.69l.42-.27V47.15l-.45-.85c-.27-.53-.54-1-.82-1.57s-.65-1.13-1-1.7-.59-1-.9-1.51-.72-1.11-1.08-1.65-.65-1-1-1.46-.78-1.07-1.18-1.6-.69-.94-1.06-1.4-.85-1-1.28-1.54-.74-.89-1.13-1.33-.93-1-1.39-1.5-.79-.84-1.19-1.25-1-1-1.51-1.44-.82-.79-1.24-1.17-1.09-.93-1.63-1.39-.85-.73-1.29-1.08l-.15-.13.23-.28c.21-.26.43-.51.65-.77.56-.67,1.14-1.33,1.73-2l.83-.89c.6-.64,1.21-1.26,1.82-1.88.25-.25.49-.5.74-.74.86-.83,1.73-1.65,2.63-2.44l.48-.4C180.4,14.53,181.17,13.89,182,13.26Zm-7.32-6.51h4.67l-.53.43c-.79.62-1.57,1.26-2.34,1.9-.43.36-.87.71-1.3,1.08-.93.82-1.84,1.66-2.74,2.52-.24.22-.48.43-.71.66Q170,15,168.43,16.69c-.32.35-.61.71-.92,1.06-.73.82-1.44,1.64-2.14,2.49-.1.13-.22.25-.33.39l-.06,0c-1.07-.69-2.17-1.35-3.27-2l-1-.53c-.8-.43-1.6-.85-2.42-1.25l-1.22-.59c-.77-.35-1.54-.7-2.33-1l-1.24-.51c-.86-.34-1.73-.66-2.61-1-.25-.08-.5-.19-.76-.28A47.59,47.59,0,0,1,174.63,6.75ZM143.16,18.47l.88.22.94.25c.68.19,1.34.39,2,.59l.69.22c.89.29,1.76.6,2.63.93l.52.21c.7.27,1.39.56,2.07.85l.83.38,1.75.83.83.42c.63.32,1.26.67,1.89,1l.57.32c.76.43,1.51.89,2.26,1.36l-.13.2c-.14.2-.27.41-.4.62-.52.78-1,1.58-1.52,2.38l-.57.95c-.44.75-.87,1.5-1.29,2.26-.16.29-.33.58-.48.87-.56,1-1.09,2.08-1.6,3.13-.05.1-.09.2-.13.3-.46,1-.9,1.93-1.31,2.91-.15.33-.28.66-.42,1q-.48,1.18-.93,2.37c-.13.34-.26.68-.38,1-.35,1-.69,2-1,3l-.12.37,0,.09c-.84-.29-1.68-.56-2.52-.82l-.11,0c-1-.3-1.95-.56-2.93-.81l-1-.22c-.66-.16-1.34-.31-2-.45L141,45c-.63-.12-1.25-.23-1.87-.32l-1.2-.18c-.63-.09-1.26-.16-1.89-.23l-1.16-.12q-1-.09-2.07-.15l-1-.06c-1,0-2-.07-3.08-.07h-1.2A48.48,48.48,0,0,1,143.16,18.47ZM126.22,55.16c0-1.5.08-3,.22-4.53.79,0,1.57-.05,2.33-.05.94,0,1.87,0,2.8.07l.9.05c.62,0,1.25.08,1.87.14l1.07.11c.56.06,1.13.13,1.69.21l1.11.16,1.64.28,1.1.22c.55.11,1.1.23,1.64.36l1.06.26c.58.14,1.15.3,1.72.47.32.09.64.17.95.27.73.22,1.45.46,2.17.71L149,54h0l-.06.33c-.28,1.26-.52,2.52-.74,3.79,0,.13-.05.27-.07.4-.21,1.31-.39,2.62-.54,3.94,0,.25-.06.49-.08.74-.14,1.29-.25,2.6-.32,3.9,0,.23,0,.45,0,.68-.06,1.36-.11,2.73-.11,4.1s0,2.6.1,3.9c0,.42.06.84.08,1.26.06.88.12,1.76.2,2.64,0,.2,0,.4,0,.6l-.29-.08-.77-.21-1.94-.5-.9-.21c-.67-.15-1.34-.29-2-.42l-.72-.14c-.9-.16-1.8-.31-2.71-.43l-.58-.08c-.73-.09-1.45-.17-2.18-.24l-.91-.08c-.66-.06-1.32-.1-2-.14l-.85,0c-.92,0-1.85-.07-2.79-.07s-1.68,0-2.55.06Zm0,29.34q1.31-.06,2.55-.06c.89,0,1.78,0,2.66.06l.88,0q.88,0,1.77.12l1,.11c.53,0,1,.11,1.58.18l1.1.16c.51.08,1,.15,1.5.24l1.13.22c.49.09,1,.19,1.46.3l1.13.26,1.44.37,1.11.31,1.44.44,1.08.35.44.16c0,.16.07.32.1.47l.27,1.27c.12.5.23,1,.35,1.51s.21.85.31,1.27.26,1,.4,1.49.23.84.36,1.26.29,1,.44,1.46.27.83.4,1.25.33,1,.5,1.44.29.82.44,1.23.36,1,.55,1.43l.48,1.21.6,1.41c.17.4.34.8.52,1.19s.43.93.65,1.4.37.77.56,1.16l.71,1.39.59,1.12c.25.46.51.92.77,1.38s.41.73.62,1.09.55.92.83,1.38.42.7.64,1,.6.92.9,1.38.43.67.66,1c.32.47.65.94,1,1.4l.66.93c.35.48.72,1,1.09,1.43l.64.84c.41.52.84,1,1.27,1.55.18.22.35.45.54.66q.93,1.1,1.89,2.16c.83.92,1.69,1.81,2.57,2.69l.58.59c.87.86,1.76,1.7,2.66,2.52.11.09.22.18.32.28.84.74,1.69,1.47,2.55,2.18l.61.49c.94.76,1.89,1.5,2.86,2.21l.18.14H126.22Zm9.22,120-1.21.11-1.21.11h-.25a48,48,0,0,1-6.55-24.2V144.81h62.63q0,1,0,2a.89.89,0,0,0,0,.23c0,.31,0,.62.06.94a59.24,59.24,0,0,1-2.06,12.73c-.21.79-.45,1.57-.69,2.34-.08.25-.17.48-.25.72-.17.53-.35,1.06-.53,1.58-.11.29-.23.57-.34.86-.17.46-.34.93-.53,1.39-.12.3-.26.6-.39.9s-.36.87-.56,1.29-.29.61-.44.92-.38.82-.59,1.23-.32.61-.48.91-.41.79-.63,1.18-.34.61-.52.91-.43.76-.66,1.13-.37.6-.56.9-.46.73-.7,1.09-.4.58-.6.87-.48.71-.73,1.06l-.63.85c-.26.34-.51.68-.77,1l-.67.84c-.26.33-.53.65-.8,1l-.7.81c-.28.31-.55.63-.83.93s-.49.53-.74.79l-.86.9-.77.76-.89.85c-.26.25-.53.49-.8.73l-.92.82-.83.7-.95.78c-.28.23-.57.45-.86.67l-1,.74-.89.64-1,.7-.92.61-1,.65c-.31.2-.63.39-1,.58s-.69.41-1,.61l-1,.55-1.07.56-1,.52-1.08.52-1,.47-1.1.49-1,.43-1.12.44-1.07.4-1.14.39-1.09.36-1.15.35-1.12.32-1.16.3-1.14.28-1.18.25-1.15.24L139,204l-1.18.19-1.2.16C136.24,204.39,135.84,204.45,135.44,204.49Zm53.37,24.44H174.63l-1.76,0c.87-.76,1.71-1.54,2.53-2.34l.3-.31c.77-.76,1.53-1.54,2.26-2.33l.81-.91c.54-.62,1.08-1.24,1.61-1.88.29-.35.57-.71.86-1.07.48-.61.95-1.23,1.41-1.85l.82-1.13c.46-.66.9-1.32,1.34-2l.7-1.07c.52-.83,1-1.67,1.49-2.52.12-.21.25-.41.37-.63.5-.9,1-1.82,1.44-2.75Zm0-52.44c0,.67,0,1.35,0,2s0,1.35,0,2c0,0,0,.08,0,.13v2.15c0,.41-.05.82-.08,1.22s-.07.53-.09.8c-.1.94-.21,1.89-.36,2.83-.07.45-.16.89-.24,1.34-.13.7-.25,1.41-.4,2.11-.1.49-.24,1-.36,1.48s-.3,1.28-.47,1.91-.31,1-.47,1.53-.36,1.21-.56,1.8-.38,1-.57,1.53-.42,1.16-.65,1.73-.44,1-.66,1.52-.48,1.12-.74,1.67-.5,1-.75,1.48-.55,1.08-.84,1.61-.55,1-.84,1.45-.6,1-.92,1.55-.61.94-.92,1.41-.66,1-1,1.49-.67.9-1,1.35-.72,1-1.09,1.44-.72.86-1.08,1.29-.77.92-1.18,1.37-.76.83-1.15,1.24-.83.88-1.26,1.3-.82.79-1.23,1.18-.88.82-1.34,1.22-.86.74-1.3,1.11-.93.77-1.41,1.15l-1.37,1-.92.66a48.88,48.88,0,0,1-26.35-16.55l1.8-.25.24,0c.81-.12,1.62-.27,2.42-.42l.68-.14c.58-.12,1.16-.24,1.74-.38l.79-.18c.57-.14,1.15-.29,1.71-.45.22-.06.45-.11.66-.18q1.17-.33,2.31-.69l.34-.12c.65-.21,1.3-.44,1.94-.67l.73-.27,1.56-.61.74-.3,1.72-.75.48-.22c.72-.33,1.43-.67,2.13-1l.57-.3c.52-.27,1-.54,1.55-.82l.71-.41,1.43-.83.65-.4c.64-.39,1.28-.8,1.9-1.21l.12-.08c.64-.43,1.28-.87,1.9-1.33l.62-.45c.44-.33.87-.65,1.3-1l.66-.52c.45-.35.88-.71,1.32-1.07l.52-.44c.59-.51,1.18-1,1.75-1.55l.41-.39c.44-.41.87-.83,1.3-1.25l.59-.6c.38-.38.74-.76,1.11-1.15l.57-.61c.42-.46.83-.92,1.24-1.39l.34-.39c.5-.59,1-1.19,1.48-1.8l.46-.61c.34-.43.67-.86,1-1.3l.52-.72.92-1.32c.15-.23.31-.45.45-.67.44-.65.86-1.31,1.27-2l.21-.36c.34-.57.68-1.14,1-1.72l.42-.75.75-1.41.41-.8.21-.43c0,.26,0,.53,0,.79s0,.71-.06,1.06a1.09,1.09,0,0,0,0,.18A.49.49,0,0,0,188.82,176.49Zm48.71-157,2-.59.94-.25.88-.22a48.48,48.48,0,0,1,15.59,25.37h-1.2c-1,0-2.05,0-3.08.07l-1,.06q-1,.06-2.07.15l-1.16.12c-.63.07-1.26.14-1.89.23-.4.06-.8.11-1.19.18-.63.09-1.25.2-1.87.32l-1.15.21q-1,.21-2,.45l-1,.22c-1,.25-2,.51-2.93.81l-.11,0c-.85.26-1.69.53-2.53.82l0-.09c0-.13-.09-.26-.13-.4-.31-1-.64-2-1-2.92-.13-.36-.26-.71-.4-1.07-.29-.77-.59-1.54-.91-2.3-.14-.35-.28-.7-.43-1q-.6-1.41-1.26-2.79c-.06-.14-.12-.28-.19-.41-.5-1-1-2.08-1.58-3.1-.16-.31-.34-.62-.51-.93-.4-.73-.82-1.47-1.25-2.2l-.6-1c-.48-.8-1-1.59-1.5-2.37l-.41-.62-.12-.2c.74-.47,1.49-.93,2.25-1.36l.57-.32c.63-.35,1.26-.7,1.89-1L229,23c.58-.29,1.16-.56,1.75-.83l.83-.38c.69-.29,1.38-.58,2.07-.85l.52-.21c.87-.33,1.74-.64,2.63-.93ZM209.88,6.75a47.59,47.59,0,0,1,24.48,6.7c-.25.09-.5.2-.76.28-.88.31-1.75.63-2.61,1l-1.24.51c-.78.33-1.56.68-2.33,1l-1.22.59c-.81.4-1.62.82-2.41,1.25l-1,.53q-1.65.95-3.27,2l-.06,0c-.11-.14-.22-.26-.33-.39-.7-.85-1.42-1.69-2.16-2.51-.3-.34-.58-.7-.89-1-1.06-1.15-2.14-2.27-3.26-3.36-.22-.22-.45-.42-.67-.63-.91-.87-1.84-1.72-2.78-2.55-.42-.37-.86-.71-1.29-1.07-.77-.65-1.55-1.29-2.35-1.91l-.52-.43ZM195.71,8.36l.36.23q1.31.84,2.58,1.74l.93.67c.7.5,1.38,1,2.06,1.54l.91.71c.8.64,1.58,1.29,2.35,2l.43.38c.91.79,1.79,1.61,2.65,2.45.24.23.48.48.72.72.62.62,1.23,1.25,1.84,1.89l.82.89c.59.66,1.17,1.32,1.74,2l.65.76c.07.09.14.19.22.28l-.15.13c-.44.35-.85.72-1.28,1.08s-1.1.91-1.63,1.39-.83.78-1.25,1.17-1,.95-1.5,1.44-.8.84-1.19,1.25-.95,1-1.4,1.5l-1.13,1.33c-.43.51-.87,1-1.28,1.54s-.71.93-1.06,1.4-.8,1.06-1.18,1.6-.66,1-1,1.46-.73,1.09-1.08,1.65-.6,1-.9,1.51-.66,1.13-1,1.7-.55,1-.82,1.57c-.14.28-.3.56-.44.85Zm-.05,68.57c0-.71,0-1.43,0-2.14h0c0-.1,0-.19,0-.28v-2c0-.4,0-.8.07-1.19s.08-.62.11-.93c.09-.81.18-1.62.29-2.42.07-.44.15-.86.23-1.3.11-.67.22-1.34.36-2,.09-.46.21-.92.31-1.38.15-.62.29-1.25.45-1.86s.27-1,.4-1.42.34-1.18.53-1.77.33-.95.49-1.42.4-1.14.62-1.7.38-.94.57-1.41.46-1.09.71-1.64.43-.92.65-1.38.52-1.06.79-1.59.48-.9.73-1.35.58-1,.88-1.53.52-.88.79-1.31.65-1,1-1.5.57-.84.86-1.25.71-1,1.07-1.46.61-.8.92-1.19.78-1,1.18-1.43.63-.75,1-1.11.87-1,1.32-1.42.63-.68,1-1c.5-.5,1-1,1.53-1.46.3-.29.59-.58.9-.86.65-.58,1.32-1.14,2-1.69l.59-.5.05,0,.06.08.27.42c.51.77,1,1.55,1.48,2.33l.54.9c.39.66.76,1.32,1.13,2l.51.93c.41.77.81,1.55,1.19,2.34l.28.56c.46,1,.9,1.94,1.32,2.93.12.27.22.55.33.82.31.73.6,1.47.88,2.21l.37,1c.26.73.51,1.46.75,2.21.1.3.2.6.29.9l.12.4-.43.21-.91.45q-1.14.55-2.25,1.17l-.92.5c-.94.53-1.87,1.07-2.78,1.64l-.18.11c-1,.62-1.91,1.26-2.84,1.92l-.79.57c-.7.51-1.38,1-2,1.56l-.78.61q-2.66,2.18-5.08,4.59l-.69.7c-.6.62-1.18,1.24-1.76,1.88l-.64.72c-.75.85-1.49,1.72-2.2,2.62l-.12.16q-1,1.26-1.92,2.58c-.2.27-.39.55-.58.83-.49.7-1,1.41-1.42,2.13-.17.27-.35.54-.51.82-.6,1-1.18,1.94-1.72,2.94-.07.12-.13.24-.19.36-.37.69-.74,1.38-1.09,2.08,0-.29,0-.57,0-.85s.05-.7.07-1v-.23C195.67,78.36,195.66,77.64,195.66,76.93Zm0,36.23v-.23c0-.71,0-1.42,0-2.13s0-1.43,0-2.14v-.23c0-.31,0-.63-.06-.94a59,59,0,0,1,2.05-12.72h0c.29-1.07.62-2.13,1-3.19.12-.34.25-.68.38-1,.25-.7.5-1.4.77-2.09l.52-1.2c.26-.61.52-1.23.81-1.84.19-.42.41-.83.61-1.25s.57-1.14.87-1.71l.7-1.25c.31-.54.62-1.08.95-1.62s.51-.82.77-1.23.68-1,1-1.54.56-.8.84-1.2.73-1,1.11-1.48.59-.77.9-1.14.79-1,1.19-1.43.63-.73,1-1.09.85-.92,1.28-1.37l1-1c.46-.45.93-.89,1.4-1.33s.66-.63,1-.93c.51-.45,1-.89,1.56-1.33l1-.81c.6-.48,1.21-.93,1.83-1.39.27-.2.53-.41.8-.6q1.35-1,2.76-1.86l.11-.06c.9-.57,1.82-1.11,2.75-1.63.3-.17.62-.33.93-.49.58-.31,1.17-.62,1.76-.91a2,2,0,0,1,.05.24c.22,1.09.42,2.18.59,3.28l.09.62c.15,1,.28,2,.39,3,0,.17,0,.33,0,.5.11,1.11.19,2.22.26,3.34l0,.75c0,1.14.09,2.29.09,3.43s0,2-.07,3c0,.33,0,.66,0,1,0,.67-.07,1.33-.13,2,0,.39-.07.77-.1,1.16-.06.61-.13,1.23-.2,1.84l-.15,1.17c0,.25-.07.49-.11.74l-.32.14-1.12.5-1.29.58-1.1.54-1.25.63-1.08.58-1.24.69-1.05.62c-.41.24-.81.48-1.2.73s-.7.44-1,.67l-1.17.77-1,.71-1.14.82-1,.74c-.38.29-.75.58-1.11.88l-1,.77-1.08.92-.91.8c-.36.32-.71.65-1.05,1s-.59.54-.87.82l-1,1-.83.84c-.34.36-.67.73-1,1.09l-.78.86c-.33.38-.65.77-1,1.15l-.73.87c-.33.41-.65.82-1,1.24l-.65.84c-.34.46-.67.92-1,1.39-.18.25-.37.5-.54.76-.44.63-.85,1.26-1.26,1.9a3.13,3.13,0,0,1-.2.3c-.55.88-1.08,1.77-1.59,2.66l-.39.72c-.42.75-.82,1.51-1.21,2.28l-.19.36c0-.26,0-.53,0-.79S195.68,113.51,195.7,113.16Zm32.59-22.1-.22.85c-.09.3-.17.6-.25.89-.16.55-.32,1.09-.49,1.62l-.24.76c-.25.78-.51,1.56-.79,2.32,0,.1-.08.2-.11.3-.25.67-.51,1.34-.77,2-.11.27-.22.53-.34.8-.2.5-.41,1-.62,1.48-.13.3-.27.59-.4.89-.21.46-.42.92-.64,1.38l-.43.88c-.23.47-.47.93-.71,1.39-.14.27-.28.55-.43.82l-.89,1.6-.31.55c-.41.71-.83,1.41-1.27,2.1-.12.2-.25.39-.38.59-.32.5-.64,1-1,1.49-.17.26-.35.51-.53.77-.3.43-.59.86-.9,1.28l-.58.79c-.31.42-.62.83-.94,1.24l-.59.75c-.35.44-.7.88-1.06,1.31l-.52.63c-.54.63-1.09,1.26-1.65,1.88a75.22,75.22,0,0,1-14.89,12.64l-.1.06a57.79,57.79,0,0,1,1.42-6.52c.19-.7.4-1.41.62-2.1a59,59,0,0,1,6.45-13.91c.65-1,1.34-2,2.05-3,.13-.19.26-.37.4-.55q1-1.41,2.16-2.76l.43-.51c.78-.93,1.59-1.83,2.42-2.71h0c.84-.88,1.71-1.72,2.6-2.54.16-.15.32-.31.49-.45.86-.79,1.75-1.55,2.66-2.28l.51-.41c.95-.75,1.92-1.48,2.91-2.17h0c1-.69,2-1.34,3-2l.57-.35c1-.59,2-1.16,3-1.7ZM209.88,228.93H195.71V208.12c.46.93.93,1.84,1.43,2.75l.39.66c.47.84,1,1.67,1.47,2.48.23.37.47.73.71,1.1.43.66.87,1.31,1.33,2,.27.39.55.77.83,1.15.45.62.92,1.22,1.39,1.82l.89,1.11c.51.62,1,1.22,1.57,1.82.28.32.55.64.84,1,.7.76,1.42,1.5,2.16,2.23.14.13.26.27.4.41.82.79,1.66,1.57,2.52,2.33C211.05,228.92,210.47,228.93,209.88,228.93ZM221,227.64c-.31-.23-.63-.45-.93-.68-.46-.33-.91-.67-1.35-1s-1-.78-1.44-1.18-.86-.71-1.27-1.08-.92-.84-1.38-1.26-.8-.75-1.19-1.14-.87-.9-1.31-1.35-.74-.78-1.1-1.18-.83-1-1.24-1.45-.68-.8-1-1.21-.8-1-1.19-1.56-.61-.81-.9-1.22-.77-1.12-1.14-1.69c-.26-.4-.53-.79-.78-1.19-.38-.61-.74-1.23-1.1-1.85-.22-.38-.45-.75-.66-1.14-.37-.67-.71-1.35-1.05-2-.18-.35-.36-.69-.53-1-.35-.74-.68-1.5-1-2.27-.13-.3-.27-.59-.39-.9-.34-.83-.66-1.68-1-2.53-.09-.24-.18-.48-.26-.72-.33-.95-.62-1.9-.9-2.87,0-.15-.1-.31-.14-.46-.3-1.09-.57-2.18-.82-3.29,0,0,0-.07,0-.11a58.63,58.63,0,0,1-1.18-8.39v-2.06s0-.06,0-.09h0v-.12c0-.68,0-1.36,0-2s0-1.36,0-2v-.3c0-.35,0-.7-.07-1.06s0-.52,0-.78c.07.15.15.3.23.45s.25.48.37.73c.26.5.53,1,.8,1.5l.37.67q.52.95,1.08,1.86a1.76,1.76,0,0,1,.14.23c.42.68.85,1.35,1.29,2l.4.59,1,1.41.48.66c.34.46.69.92,1,1.37l.42.55c.5.62,1,1.23,1.51,1.83l.27.31c.43.5.86,1,1.31,1.47.17.2.36.39.54.58.37.4.75.79,1.13,1.18l.57.58,1.34,1.28.38.36c.57.53,1.16,1.05,1.75,1.56l.52.43c.43.37.87.73,1.32,1.09l.66.51c.43.34.86.66,1.3,1l.62.45c.62.45,1.25.89,1.88,1.32l.15.09c.62.42,1.25.82,1.89,1.21l.66.4,1.41.83.73.41,1.53.82.58.3c.71.36,1.41.7,2.13,1l.49.22c.57.26,1.13.5,1.7.74l.76.31,1.54.61.75.27c.63.23,1.27.45,1.91.66l.37.13c.76.24,1.52.47,2.29.69l.68.18c.56.16,1.13.31,1.7.44l.8.19c.57.14,1.15.26,1.73.38l.68.14c.8.15,1.61.3,2.42.42l.24,0,1.81.25A48.94,48.94,0,0,1,221,227.64Zm37.33-47.12a48,48,0,0,1-6.55,24.2h-.25l-1.21-.11-1.21-.11c-.4,0-.79-.1-1.19-.15l-1.2-.16-1.17-.19-1.2-.21-1.15-.24-1.18-.25-1.13-.28-1.17-.3-1.11-.32-1.16-.35c-.36-.11-.72-.24-1.08-.36l-1.15-.39-1.06-.4-1.13-.44-1-.43-1.11-.49-1-.47-1.08-.53-1-.5-1.07-.57-1-.55-1-.61c-.32-.19-.64-.38-.95-.58l-1-.65-.93-.62-1-.68-.9-.66-1-.72c-.29-.23-.59-.45-.88-.69l-.92-.75-.86-.73-.89-.79c-.28-.25-.56-.5-.83-.76l-.85-.82c-.27-.27-.55-.53-.81-.8s-.55-.57-.82-.85l-.78-.83c-.27-.29-.53-.59-.79-.89s-.5-.57-.74-.86-.51-.6-.75-.91-.49-.59-.72-.9-.48-.62-.71-.94-.47-.61-.69-.92-.46-.65-.68-1-.44-.63-.65-.95-.43-.67-.64-1-.42-.65-.62-1-.4-.69-.6-1-.39-.66-.58-1-.38-.72-.57-1.07l-.54-1c-.18-.36-.36-.74-.53-1.11s-.34-.68-.5-1-.34-.78-.5-1.17-.3-.68-.44-1-.34-.85-.5-1.28l-.37-1c-.18-.51-.35-1-.53-1.55-.08-.25-.17-.49-.25-.74q-.36-1.16-.69-2.34h0A59.33,59.33,0,0,1,195.64,148c0-.32.05-.63.06-.94v-.23c0-.66,0-1.32,0-2h62.63Zm0-42.46H203.93l.17-.13c1-.72,1.93-1.45,2.87-2.21l.62-.51c.85-.7,1.69-1.41,2.51-2.15l.36-.31c.9-.81,1.77-1.65,2.64-2.5l.61-.61c.86-.88,1.72-1.76,2.55-2.68.64-.7,1.27-1.42,1.89-2.15l.6-.73c.4-.49.81-1,1.21-1.48l.68-.9c.35-.46.7-.91,1-1.37l.71-1,.94-1.33L224,117c.29-.44.58-.88.86-1.33l.68-1.09c.27-.44.54-.88.8-1.33s.43-.75.64-1.13.5-.89.74-1.34.41-.77.61-1.16.47-.9.69-1.35.39-.79.58-1.19.43-.91.63-1.37.36-.81.54-1.21.39-.92.59-1.39l.49-1.23.54-1.41.45-1.25c.17-.47.33-1,.49-1.42s.27-.84.4-1.26.3-1,.44-1.46.25-.84.37-1.27l.39-1.48c.11-.42.21-.84.31-1.27s.24-1,.35-1.51l.27-1.27c0-.15.07-.31.1-.47l.44-.16,1.08-.35,1.44-.44,1.11-.31,1.44-.37,1.13-.26c.49-.11,1-.21,1.46-.3l1.13-.22c.5-.09,1-.16,1.5-.24l1.1-.16q.8-.1,1.59-.18l1-.11c.58,0,1.17-.09,1.76-.12l.88,0c.88,0,1.77-.06,2.66-.06s1.68,0,2.55.06Zm0-60.32c-.87,0-1.71-.06-2.55-.06s-1.86,0-2.79.07l-.85,0c-.66,0-1.33.08-2,.14l-.9.08c-.73.07-1.46.15-2.19.25l-.58.07c-.91.12-1.81.27-2.71.43l-.72.14c-.67.13-1.35.27-2,.42l-.89.21-1.95.5-.76.21-.3.08c0-.21,0-.41,0-.62.08-.87.15-1.75.2-2.63,0-.42.06-.83.08-1.25.06-1.3.1-2.6.1-3.9s0-2.74-.11-4.11l0-.67c-.08-1.3-.19-2.61-.32-3.9L237,62.5c-.15-1.32-.33-2.63-.54-3.94,0-.13-.05-.27-.07-.4-.22-1.27-.46-2.53-.74-3.79l-.06-.33h0l.45-.15c.72-.25,1.45-.49,2.17-.71l.95-.27c.57-.17,1.14-.33,1.72-.47l1.06-.26c.55-.13,1.09-.25,1.64-.36l1.11-.22,1.63-.28,1.11-.16c.56-.08,1.13-.15,1.7-.21l1.06-.11c.62-.06,1.25-.1,1.87-.14l.91-.05c.92,0,1.85-.07,2.79-.07.76,0,1.54,0,2.33.05.15,1.51.22,3,.22,4.53Z"/><path class="cls-1" d="M29.64,274.28v6.86H18.89v31.45h-8.2V281.14H0v-6.86Z"/><path class="cls-1" d="M70.39,305.72v6.87H45V274.28H69.59v6.86H53.15v8.73H67.09v6.59H53.15v9.26Z"/><path class="cls-1" d="M86.88,312.59V274.28h13.46q6.87,0,10.83,3.32a11.49,11.49,0,0,1,4,9.29,11.62,11.62,0,0,1-2,6.73,11.14,11.14,0,0,1-5.34,4.17l8,14.8h-8.67l-6.76-13.41H94.92v13.41Zm13.68-31.45H94.92v11.44h5.85a6.51,6.51,0,0,0,4.5-1.46,5.42,5.42,0,0,0,1.62-4.23,5.36,5.36,0,0,0-1.7-4.26A6.81,6.81,0,0,0,100.56,281.14Z"/><path class="cls-1" d="M132.27,312.59V274.28h13.46q6.86,0,10.83,3.32t4,9.29a11.69,11.69,0,0,1-1.94,6.73,11.21,11.21,0,0,1-5.35,4.17l8,14.8h-8.67l-6.76-13.41H140.3v13.41Zm13.67-31.45H140.3v11.44h5.85a6.5,6.5,0,0,0,4.5-1.46,5.42,5.42,0,0,0,1.62-4.23,5.36,5.36,0,0,0-1.7-4.26A6.81,6.81,0,0,0,145.94,281.14Z"/><path class="cls-1" d="M181.8,312.59h-8.56l18.56-38.9h.32l18.63,38.9h-8.57l-3.09-6.76H184.78Zm5.48-12.51h9.37q-3.19-7.29-4.63-11.38l-2,4.79Q188,298.38,187.28,300.08Z"/><path class="cls-1" d="M225.27,312.59V274.28h13.46c4.58,0,8.18,1.11,10.83,3.32s4,5.32,4,9.29a11.69,11.69,0,0,1-1.94,6.73,11.21,11.21,0,0,1-5.35,4.17l8,14.8h-8.68l-6.75-13.41H233.3v13.41Zm13.67-31.45H233.3v11.44h5.86a6.49,6.49,0,0,0,4.49-1.46,5.42,5.42,0,0,0,1.62-4.23,5.33,5.33,0,0,0-1.7-4.26A6.8,6.8,0,0,0,238.94,281.14Z"/><path class="cls-1" d="M278.85,274.28v38.31h-8.2V274.28Z"/><path class="cls-1" d="M321.09,274.28h8.2v24.37q0,6.75-4.26,10.74t-11.76,3.94q-7.5,0-11.76-3.94t-4.25-10.74V274.28h8.19v23.57a8,8,0,0,0,2.05,5.88,9.05,9.05,0,0,0,11.57,0,8.09,8.09,0,0,0,2-5.9Z"/><path class="cls-1" d="M374.67,292.79,366.1,302l-8.56-9.21-2-1.75v21.55h-7.83v-38.9h.16L366.1,292.1l18.25-18.41h.16v38.9h-7.82V291Z"/><text class="cls-2" transform="translate(0.14 346.46)">IN<tspan class="cls-3" x="33.5" y="0">DO</tspan><tspan x="80.82" y="0">O</tspan><tspan class="cls-4" x="105.49" y="0">R </tspan><tspan x="132.79" y="0">SMAR</tspan><tspan class="cls-4" x="216.35" y="0">T </tspan><tspan x="241.51" y="0">GARDEN</tspan><tspan class="cls-5" x="367.89" y="0">S</tspan></text></g></g></svg>